<svg width="552" height="326" viewBox="0 0 552 326" fill="none" xmlns="http://www.w3.org/2000/svg">
<path d="M61.4165 181.458C61.8436 170.589 61.6959 159.705 60.9739 148.852C59.3662 126.469 55.9506 104.254 50.7605 82.4222C47.9093 70.1236 44.4027 58.0378 40.7429 45.9689C40.6407 45.6029 40.0535 45.7051 40.1556 46.0881C51.4584 88.6439 60.7271 132.561 60.0888 176.803C59.91 189.186 58.4801 201.349 57.3056 213.647C57.3056 213.979 57.8163 214.107 57.8929 213.766C60.2249 203.238 60.9824 192.208 61.4165 181.458Z" fill="#EBEBEB"/>
<path d="M40.1557 46.088C40.1557 46.088 23.0312 89.546 26.8697 99.7594C30.7083 109.973 38.6066 112.152 38.6066 112.152C38.6066 112.152 28.1294 127.072 35.449 141.141C42.7686 155.21 59.0334 154.503 60.1314 170.411C60.1143 170.411 61.025 103.904 40.1557 46.088Z" fill="#EBEBEB"/>
<path d="M58.2502 142.945C58.2792 142.871 58.2792 142.789 58.2502 142.715C55.8501 113.165 50.5902 83.7074 41.645 55.2971C41.645 55.212 41.4832 55.2375 41.5088 55.2971C44.9132 68.0128 47.9092 80.7937 50.4966 93.6399C48.1968 91.4624 45.3875 89.8968 42.3258 89.0864C42.3146 89.0864 42.3037 89.0909 42.2958 89.0989C42.2878 89.1069 42.2833 89.1177 42.2833 89.129C42.2833 89.1403 42.2878 89.1511 42.2958 89.1591C42.3037 89.167 42.3146 89.1715 42.3258 89.1715C45.492 90.5418 48.522 92.1249 50.7604 94.8144C51.2626 97.3678 51.7562 99.853 52.2158 102.372C48.3943 98.1168 43.0833 95.9719 37.7468 93.9548C37.6788 93.9548 37.6362 94.0484 37.7468 94.074C43.2706 96.3294 48.8114 99.2232 52.5307 103.989C53.8358 111.207 54.9706 118.444 55.9352 125.701C53.167 122.807 49.6196 120.776 45.7218 119.854C45.6026 119.854 45.5346 119.999 45.6622 120.033C49.6821 121.192 53.2781 123.496 56.0118 126.663C56.0307 126.685 56.0539 126.702 56.0799 126.714C56.4203 129.268 56.7438 131.821 57.0416 134.374C54.9038 132.564 52.4902 131.107 49.8923 130.059C49.8812 130.064 49.8717 130.071 49.8651 130.081C49.8584 130.091 49.8548 130.103 49.8548 130.114C49.8548 130.126 49.8584 130.138 49.8651 130.148C49.8717 130.158 49.8812 130.165 49.8923 130.17C52.5406 131.317 54.9664 132.922 57.0587 134.911C57.0587 134.911 57.1182 134.911 57.1523 134.953C57.4332 137.387 57.7225 139.821 58.0034 142.256C54.1475 137.596 49.1427 134.023 43.4834 131.889C43.4622 131.885 43.4403 131.889 43.4215 131.899C43.4027 131.91 43.3881 131.926 43.3801 131.946C43.3721 131.966 43.3712 131.989 43.3776 132.009C43.384 132.03 43.3973 132.047 43.4153 132.059C49.0037 134.525 53.9145 138.303 57.7311 143.073C57.7698 143.128 57.8256 143.17 57.89 143.192C57.9544 143.213 58.0241 143.213 58.0885 143.192C58.463 146.931 58.7893 150.676 59.0673 154.427C59.0673 154.478 59.1524 154.486 59.1524 154.427C58.863 150.608 58.5623 146.781 58.2502 142.945Z" fill="white"/>
<path d="M44.4963 84.7882C41.5259 82.7541 37.7554 81.8774 34.2063 81.588C34.1212 81.588 34.1212 81.7072 34.2063 81.7157C37.8916 82.2604 41.0152 83.5966 44.3771 85.035C44.4963 85.1031 44.6239 84.8818 44.4963 84.7882Z" fill="white"/>
<path d="M46.573 130.808C44.1911 129.444 41.5713 128.545 38.8534 128.161C38.7597 128.161 38.7512 128.297 38.8534 128.306C41.5187 128.84 44.0968 129.742 46.5134 130.987C46.5335 130.985 46.5526 130.978 46.5685 130.966C46.5844 130.953 46.5963 130.936 46.6026 130.917C46.609 130.898 46.6096 130.878 46.6043 130.858C46.599 130.839 46.5881 130.821 46.573 130.808Z" fill="white"/>
<path d="M106.432 100.466C99.1906 105.474 92.5407 111.288 86.6094 117.795C80.4962 124.678 75.7761 132.681 72.7107 141.362C66.212 159.456 62.7188 178.492 62.3696 197.714C62.1501 208.365 63.1756 219.006 65.4251 229.419C65.4398 229.496 65.4848 229.565 65.5502 229.61C65.6157 229.655 65.6962 229.671 65.7741 229.657C65.852 229.642 65.9208 229.597 65.9655 229.532C66.0102 229.466 66.0271 229.386 66.0124 229.308C63.2186 210.933 63.3249 192.234 66.3273 173.892C69.2722 155.916 73.8852 136.357 85.3157 121.744C91.5374 113.786 99.2995 107.53 106.968 101.062C107.36 100.738 106.849 100.177 106.432 100.466Z" fill="#EBEBEB"/>
<path d="M64.923 184.786C69.053 178.119 73.9053 171.928 79.392 166.325C87.9627 157.763 95.1717 151.678 96.2866 146.009C97.4016 140.341 87.7074 136.179 87.7074 136.179C87.7074 136.179 99.5634 138.306 102.806 133.327C106.049 128.348 107.615 99.5466 107.615 99.5466C107.615 99.5466 86.0477 114.935 76.0045 136.519C65.9614 158.103 64.923 184.786 64.923 184.786Z" fill="#EBEBEB"/>
<path d="M100.083 106.926C91.0098 115.837 81.8773 125.336 76.5323 137.047C74.7075 141.091 73.1189 145.237 71.7746 149.465C71.5022 150.316 71.2213 151.167 70.9234 152.018C70.9005 152.06 70.886 152.106 70.8809 152.154C68.3474 160.908 66.3043 169.796 64.7614 178.777C64.7614 178.828 64.8294 178.862 64.8465 178.777C65.7742 174.283 66.7955 169.738 67.9445 165.219C67.9867 165.227 68.03 165.227 68.0722 165.219C69.8716 164.445 71.7817 163.96 73.7321 163.78C73.8598 163.78 73.8513 163.542 73.7321 163.551C71.8279 163.638 69.9441 163.981 68.1318 164.572C69.1787 160.487 70.3106 156.418 71.5873 152.41C75.7695 151.386 80.0497 150.815 84.3541 150.707V150.631C80.1469 150.462 75.9356 150.839 71.8256 151.754C72.0469 151.065 72.2767 150.384 72.5065 149.694C75.3089 149.028 78.1521 148.548 81.0177 148.256C81.0687 148.256 81.0687 148.162 81.0177 148.162C78.2131 148.218 75.4214 148.557 72.6852 149.175C73.8513 145.703 75.1194 142.281 76.5323 138.962C77.6951 136.231 79.0548 133.589 80.6006 131.055C82.8716 130.493 85.1776 130.084 87.5032 129.829C87.5713 129.829 87.5628 129.719 87.5032 129.71C85.3319 129.547 83.1489 129.763 81.0517 130.349C82.1837 128.519 83.3753 126.723 84.6519 124.987C89.4863 123.914 94.3887 122.918 99.3422 123.846C99.4273 123.846 99.4529 123.718 99.3422 123.701C94.6355 122.459 89.9799 123.174 85.2733 124.101C85.7839 123.42 86.3116 122.748 86.8393 122.084C89.7664 121.183 92.8072 120.704 95.8697 120.663C95.8832 120.663 95.8962 120.657 95.9058 120.648C95.9153 120.638 95.9207 120.625 95.9207 120.612C95.9207 120.598 95.9153 120.585 95.9058 120.576C95.8962 120.566 95.8832 120.561 95.8697 120.561C93.0416 120.302 90.19 120.555 87.4521 121.31C91.4439 116.348 95.8611 111.684 100.219 107.062C100.457 106.841 100.295 106.722 100.083 106.926Z" fill="white"/>
<path d="M99.8188 126.57C98.4097 126.368 96.9831 126.317 95.5632 126.416C95.393 126.416 95.4015 126.723 95.5632 126.723C96.9846 126.723 98.3974 126.663 99.8188 126.723C99.8332 126.716 99.8453 126.705 99.8538 126.691C99.8623 126.678 99.8668 126.662 99.8668 126.646C99.8668 126.63 99.8623 126.615 99.8538 126.601C99.8453 126.587 99.8332 126.577 99.8188 126.57Z" fill="white"/>
<path d="M84.3199 154.52C82.0429 154.572 79.7928 155.024 77.6727 155.857C77.6216 155.857 77.6727 155.959 77.6727 155.95C79.8685 155.422 82.09 155.21 84.3029 154.844C84.3241 154.845 84.3453 154.842 84.3654 154.835C84.3854 154.828 84.4039 154.817 84.4197 154.802C84.4355 154.788 84.4484 154.771 84.4575 154.752C84.4667 154.733 84.472 154.712 84.4731 154.69C84.4742 154.669 84.4711 154.648 84.464 154.628C84.4569 154.608 84.446 154.589 84.4317 154.574C84.4175 154.558 84.4003 154.545 84.3811 154.536C84.3619 154.527 84.3411 154.521 84.3199 154.52Z" fill="white"/>
<path d="M79.6729 144.86C78.7251 144.856 77.779 144.941 76.8472 145.115C76.7536 145.115 76.7621 145.286 76.8472 145.286C77.791 145.337 78.7376 145.294 79.6729 145.158C79.8431 145.124 79.8346 144.869 79.6729 144.86Z" fill="white"/>
<path d="M1.66802 131.046C8.68466 133.425 15.4089 136.591 21.7118 140.485C28.2514 144.641 33.9201 150.03 38.4022 156.35C47.8525 169.491 55.0864 184.091 59.8163 199.57C62.4538 208.146 64.0819 217.001 64.6676 225.954C64.6568 226.013 64.6257 226.066 64.5799 226.104C64.534 226.142 64.4762 226.163 64.4166 226.163C64.3569 226.163 64.2991 226.142 64.2533 226.104C64.2074 226.066 64.1763 226.013 64.1655 225.954C62.1803 210.438 57.7748 195.329 51.1094 181.177C44.5728 167.313 36.3085 152.554 23.6864 143.371C16.8094 138.366 9.08125 135.098 1.37864 131.634C0.978619 131.472 1.268 130.902 1.66802 131.046Z" fill="#EBEBEB"/>
<path d="M54.7862 189.68C49.9076 185.238 44.5561 181.345 38.8278 178.071C29.9166 173.126 22.6566 169.866 20.4607 165.542C18.2648 161.219 25.1248 155.601 25.1248 155.601C25.1248 155.601 16.0264 160.061 12.256 156.784C8.48551 153.507 0.553101 130.553 0.553101 130.553C0.553101 130.553 21.5587 138.026 34.6829 153.176C47.8071 168.325 54.7862 189.68 54.7862 189.68Z" fill="#EBEBEB"/>
<path d="M53.6883 184.948C43.177 165.219 29.1761 147.379 9.9494 135.583C14.9664 138.827 19.6706 142.531 24.0013 146.647C20.0924 146.434 16.1964 147.256 12.707 149.031C12.6961 149.04 12.6886 149.053 12.6853 149.067C12.6821 149.081 12.6835 149.095 12.6891 149.109C12.6948 149.122 12.7045 149.133 12.7169 149.14C12.7293 149.148 12.7437 149.151 12.7581 149.15C16.4721 147.757 20.4188 147.089 24.3843 147.184C24.4317 147.183 24.477 147.164 24.512 147.133C25.2014 147.779 25.8738 148.435 26.5377 149.099C24.5071 149.194 22.4884 149.461 20.5032 149.899C20.492 149.899 20.4811 149.903 20.4731 149.911C20.4652 149.919 20.4607 149.93 20.4607 149.941C20.4607 149.953 20.4652 149.963 20.4731 149.971C20.4811 149.979 20.492 149.984 20.5032 149.984C22.6046 149.591 24.7407 149.414 26.8781 149.456C30.4046 153.009 33.7292 156.757 36.8362 160.682C35.412 160.48 33.961 160.584 32.5806 160.989C32.5636 160.994 32.5487 161.005 32.5382 161.02C32.5277 161.034 32.522 161.052 32.522 161.07C32.522 161.087 32.5277 161.105 32.5382 161.119C32.5487 161.134 32.5636 161.145 32.5806 161.15C34.0755 160.978 35.5841 160.958 37.083 161.091C37.6617 161.823 38.2405 162.546 38.7852 163.287C34.4908 163.029 30.1825 163.448 26.0185 164.529C25.9589 164.529 25.9759 164.64 26.0185 164.631C30.3302 163.787 34.7325 163.501 39.1172 163.78C39.6534 164.487 40.164 165.219 40.6832 165.942C38.1251 165.868 35.5693 166.154 33.0912 166.793C33.0797 166.789 33.0674 166.788 33.0553 166.79C33.0432 166.792 33.0317 166.796 33.0217 166.803C33.0117 166.81 33.0036 166.82 32.998 166.831C32.9924 166.841 32.9895 166.853 32.9895 166.866C32.9895 166.878 32.9924 166.89 32.998 166.901C33.0036 166.912 33.0117 166.921 33.0217 166.928C33.0317 166.935 33.0432 166.94 33.0553 166.941C33.0674 166.943 33.0797 166.942 33.0912 166.938C35.6701 166.379 38.3131 166.176 40.9471 166.334C43.211 169.44 45.3729 172.623 47.4581 175.849C46.3457 175.648 45.2012 175.718 44.1217 176.053C44.1104 176.053 44.0996 176.058 44.0916 176.066C44.0836 176.074 44.0792 176.085 44.0792 176.096C44.0792 176.107 44.0836 176.118 44.0916 176.126C44.0996 176.134 44.1104 176.139 44.1217 176.139C45.327 176.046 46.5392 176.103 47.7304 176.309C49.6029 179.225 51.4073 182.164 53.1435 185.126C53.4244 185.39 53.8585 185.203 53.6883 184.948Z" fill="white"/>
<path d="M37.3469 168.581C35.281 168.445 33.208 168.699 31.2359 169.33C31.1848 169.33 31.2359 169.432 31.2359 169.423C33.2459 169.085 35.2759 168.877 37.3129 168.802C37.4576 168.776 37.4831 168.598 37.3469 168.581Z" fill="white"/>
<path d="M19.0138 144.545C18.0742 144.474 17.1292 144.531 16.2051 144.715C16.1881 144.721 16.1732 144.732 16.1627 144.746C16.1522 144.761 16.1465 144.778 16.1465 144.796C16.1465 144.814 16.1522 144.832 16.1627 144.846C16.1732 144.861 16.1881 144.872 16.2051 144.877C17.1328 144.783 18.0435 144.818 18.9712 144.783C19.0028 144.789 19.0354 144.782 19.0617 144.764C19.088 144.745 19.106 144.717 19.1116 144.686C19.1173 144.654 19.1101 144.621 19.0918 144.595C19.0734 144.569 19.0454 144.551 19.0138 144.545Z" fill="white"/>
<path d="M81.8859 254.901H34.4532L41.2196 205.366L42.9473 192.667H73.3918L75.1195 205.366L81.8859 254.901Z" fill="#DBDBDB"/>
<path d="M75.1193 205.366H41.2194L42.9472 192.667H73.3916L75.1193 205.366Z" fill="#C7C7C7"/>
<path d="M77.7407 188.259H38.5894V199.017H77.7407V188.259Z" fill="#DBDBDB"/>
<path d="M442.742 28.8954C440.49 34.6268 439.166 40.6803 438.818 46.8285H423.141H422.945V46.3944L423.073 45.1773C423.263 43.0647 423.605 40.9685 424.094 38.9046C424.916 35.5272 426.1 32.2484 427.626 29.1252C427.655 29.0491 427.708 28.9849 427.777 28.9432C427.847 28.9014 427.929 28.8846 428.009 28.8954H442.717H442.742Z" fill="#EBEBEB"/>
<path d="M442.265 68.9404H427.677C427.601 68.9484 427.523 68.9299 427.458 68.8882C427.393 68.8464 427.345 68.7838 427.32 68.7106C425.636 65.1965 424.42 61.4766 423.703 57.6461C423.341 55.8029 423.102 53.9377 422.988 52.0628C422.988 52.0032 422.988 51.9351 422.945 51.8756V51.433H423.183H438.563C438.844 51.433 438.836 51.433 438.853 51.7224C438.955 52.9905 439.04 54.2757 439.159 55.5439C439.361 57.5651 439.688 59.5718 440.138 61.5528C440.665 63.9771 441.356 66.3629 442.206 68.6936C442.214 68.7787 442.231 68.8553 442.265 68.9404Z" fill="#EBEBEB"/>
<path d="M503.614 73.5706C503.614 73.6557 503.529 73.7238 503.495 73.7834C502.255 75.6737 500.872 77.4663 499.358 79.1454C497.533 81.2076 495.503 83.0784 493.298 84.7287C491.136 86.3599 488.825 87.7846 486.396 88.9843C484.056 90.1523 481.615 91.1038 479.102 91.827C477.108 92.3949 475.077 92.8271 473.025 93.1207L472.429 93.2229H472.08L471.757 93.0271L472.148 92.7548C476.606 89.726 480.505 85.9479 483.672 81.5881C485.464 79.1304 487.039 76.5219 488.379 73.7919C488.402 73.7178 488.451 73.6543 488.516 73.6123C488.581 73.5703 488.659 73.5525 488.736 73.5621H503.656L503.614 73.5706Z" fill="#EBEBEB"/>
<path d="M489.026 46.8115H468.531V28.9381H468.769H484.524C484.593 28.9296 484.663 28.9464 484.721 28.9855C484.779 29.0246 484.82 29.0833 484.838 29.1509C486.314 32.5162 487.407 36.0362 488.098 39.6451C488.468 41.5212 488.732 43.4164 488.89 45.3221C488.941 45.7817 488.983 46.2838 489.026 46.8115Z" fill="#EBEBEB"/>
<path d="M488.898 51.5947C488.898 52.0118 488.898 52.4458 488.838 52.8544C488.753 53.8502 488.677 54.8545 488.54 55.8418C488.345 57.2121 488.14 58.5909 487.859 59.9527C487.252 62.9408 486.363 65.8647 485.204 68.6851C485.186 68.7678 485.137 68.8407 485.068 68.8895C484.999 68.9383 484.914 68.9595 484.83 68.949H468.411V51.5947H488.898Z" fill="#EBEBEB"/>
<path d="M463.909 29.0147V46.9477H443.9C443.9 46.4881 443.942 46.0455 443.993 45.603C444.095 44.5986 444.172 43.5943 444.334 42.5985C444.581 41.0835 444.836 39.56 445.185 38.0536C445.844 35.0121 446.805 32.044 448.053 29.1934C448.076 29.1232 448.122 29.063 448.184 29.0227C448.246 28.9825 448.32 28.9646 448.394 28.9721H463.909V29.0147Z" fill="#EBEBEB"/>
<path d="M463.935 51.8331C463.935 57.4505 463.935 63.0707 463.935 68.6938V68.9406H447.925C447.847 68.9515 447.767 68.9333 447.701 68.8894C447.635 68.8454 447.588 68.7789 447.568 68.7023C446.353 65.7935 445.44 62.7675 444.844 59.6719C444.546 58.0803 444.317 56.4717 444.121 54.8631C443.985 53.8162 443.951 52.7523 443.882 51.6884C443.879 51.6516 443.879 51.6146 443.882 51.5778H463.654C463.884 51.5693 463.935 51.6289 463.935 51.8331Z" fill="#EBEBEB"/>
<path d="M510.755 46.9392H493.962C493.623 40.7551 492.301 34.6643 490.047 28.8956H505.699C505.776 28.8851 505.855 28.9013 505.921 28.9416C505.988 28.9818 506.039 29.0437 506.065 29.1169C507.858 32.6666 509.161 36.4431 509.938 40.3431C510.357 42.419 510.642 44.52 510.789 46.6328L510.755 46.9392Z" fill="#EBEBEB"/>
<path d="M510.763 51.4586C510.763 51.8672 510.763 52.2502 510.712 52.6332C510.604 54.148 510.42 55.6564 510.159 57.1526C509.537 60.6262 508.5 64.0124 507.069 67.2383C506.848 67.7575 506.593 68.2682 506.363 68.7873C506.347 68.839 506.314 68.8835 506.269 68.913C506.224 68.9426 506.17 68.9554 506.116 68.9491H490.481C490.668 68.4129 490.856 67.8937 491.034 67.366C491.94 64.6981 492.634 61.9633 493.111 59.1867C493.471 57.1741 493.713 55.1422 493.835 53.1013C493.835 52.6161 493.894 52.131 493.911 51.6544C493.911 51.5267 493.911 51.4586 494.09 51.4756C494.141 51.4799 494.192 51.4799 494.243 51.4756L510.763 51.4586Z" fill="#EBEBEB"/>
<path d="M503.154 24.325V24.4016H502.933C498.039 24.4016 493.145 24.4016 488.251 24.4016C488.177 24.4107 488.101 24.3947 488.036 24.3562C487.972 24.3177 487.922 24.2588 487.894 24.1888C485.943 20.2883 483.494 16.6577 480.608 13.3882C478.906 11.5021 477.034 9.77571 475.017 8.2304C474.012 7.4644 472.974 6.74095 471.953 6.00048L471.782 5.87281L471.987 5.72812C471.987 5.64301 471.927 5.54088 471.884 5.41321C477.063 5.99446 482.094 7.50528 486.736 9.87306C493.369 13.1855 499.027 18.1658 503.154 24.325Z" fill="#EBEBEB"/>
<path d="M461.067 93.0271C460.929 93.0702 460.785 93.0931 460.641 93.0952C459.029 92.8846 457.432 92.5747 455.858 92.1675C452.918 91.4161 450.065 90.3577 447.347 89.0098C444.234 87.4601 441.317 85.5459 438.657 83.3074C436.766 81.7241 435.02 79.9752 433.439 78.0815C432.258 76.6487 431.169 75.142 430.18 73.5706C430.15 73.5258 430.127 73.4771 430.111 73.4259H430.35C434.912 73.4259 439.465 73.4259 444.027 73.4259C444.1 73.4199 444.174 73.4384 444.235 73.4784C444.297 73.5185 444.343 73.5778 444.368 73.6472C445.793 76.5229 447.477 79.2634 449.398 81.8349C451.174 84.1726 453.144 86.3563 455.288 88.363C457.051 90.0317 458.946 91.5545 460.956 92.9165L461.067 93.0271Z" fill="#EBEBEB"/>
<path d="M460.888 5.84733C460.258 6.30693 459.526 6.82611 458.811 7.37083C456.424 9.22942 454.206 11.2942 452.181 13.5414C449.44 16.5287 447.102 19.8623 445.227 23.4569C445.108 23.6867 445.006 23.925 444.87 24.1378C444.846 24.1743 444.815 24.2054 444.778 24.2289C444.741 24.2523 444.7 24.2677 444.657 24.274C444.41 24.274 444.163 24.274 443.916 24.274H430.554C438.001 13.7627 448.002 7.43892 460.735 5.54944C460.735 5.60902 460.675 5.66859 460.641 5.71966L460.888 5.84733Z" fill="#EBEBEB"/>
<path d="M482.906 73.5791C481.008 76.8913 478.722 79.9656 476.097 82.7371C473.791 85.2216 471.197 87.4218 468.369 89.2907V73.5791H482.906Z" fill="#EBEBEB"/>
<path d="M463.909 73.5876V88.9928C458.123 85.0268 453.358 79.7479 450.002 73.5876H463.909Z" fill="#EBEBEB"/>
<path d="M482.455 24.2654H468.531V9.61768C471.387 11.4799 474.01 13.6772 476.344 16.1628C478.653 18.6473 480.701 21.3624 482.455 24.2654Z" fill="#EBEBEB"/>
<path d="M463.91 10.0348V24.3846H450.547C453.816 18.6208 458.393 13.7054 463.91 10.0348Z" fill="#EBEBEB"/>
<path d="M198.753 83.6648H81.7837V7.48987H198.753V83.6648ZM82.6348 82.8137H197.901V8.34098H82.6348V82.8137Z" fill="#EBEBEB"/>
<path d="M198.753 18.3501H81.7837V7.48987H198.753V18.3501ZM82.6348 17.499H197.901V8.34098H82.6348V17.499Z" fill="#EBEBEB"/>
<path d="M91.6055 13.0221C91.6055 13.5271 91.4558 14.0208 91.1752 14.4407C90.8946 14.8606 90.4958 15.1878 90.0293 15.3811C89.5627 15.5743 89.0493 15.6249 88.554 15.5264C88.0587 15.4279 87.6038 15.1847 87.2467 14.8276C86.8896 14.4705 86.6464 14.0155 86.5479 13.5202C86.4494 13.0249 86.4999 12.5115 86.6932 12.045C86.8864 11.5784 87.2137 11.1796 87.6336 10.8991C88.0535 10.6185 88.5472 10.4688 89.0522 10.4688C89.7294 10.4688 90.3788 10.7378 90.8576 11.2166C91.3365 11.6955 91.6055 12.3449 91.6055 13.0221Z" fill="#C7C7C7"/>
<path d="M101.879 13.0222C101.879 13.529 101.728 14.0243 101.445 14.4451C101.163 14.8659 100.761 15.193 100.292 15.385C99.8233 15.5769 99.3077 15.625 98.8113 15.5229C98.3148 15.4209 97.86 15.1735 97.5047 14.8121C97.1493 14.4507 96.9096 13.9918 96.8159 13.4937C96.7222 12.9957 96.7789 12.481 96.9787 12.0152C97.1785 11.5495 97.5124 11.1537 97.9378 10.8783C98.3633 10.603 98.8611 10.4604 99.3678 10.4689C99.7012 10.4688 100.031 10.5351 100.339 10.664C100.646 10.7928 100.925 10.9816 101.158 11.2192C101.392 11.4569 101.576 11.7387 101.7 12.0483C101.823 12.3578 101.884 12.6889 101.879 13.0222Z" fill="#EBEBEB"/>
<path d="M112.16 13.0221C112.16 13.5271 112.01 14.0208 111.73 14.4407C111.449 14.8606 111.05 15.1878 110.584 15.3811C110.117 15.5743 109.604 15.6249 109.109 15.5264C108.613 15.4279 108.158 15.1847 107.801 14.8276C107.444 14.4705 107.201 14.0155 107.102 13.5202C107.004 13.0249 107.054 12.5115 107.248 12.045C107.441 11.5784 107.768 11.1796 108.188 10.8991C108.608 10.6185 109.102 10.4688 109.607 10.4688C110.284 10.4688 110.933 10.7378 111.412 11.2166C111.891 11.6955 112.16 12.3449 112.16 13.0221Z" fill="#0DA8EF"/>
<path d="M0 254.901L69 254.697L138 254.62L276 254.475L414 254.62L483 254.697L552 254.901L483 255.114L414 255.182L276 255.326L138 255.182L69 255.105L0 254.901Z" fill="#263238"/>
<path d="M440.878 45.739H110.483V266.748H440.878V45.739Z" fill="#DBDBDB"/>
<path d="M438.478 48.437H112.883V264.05H438.478V48.437Z" fill="#263238"/>
<path d="M483.911 283.32H67.4508V298.486H483.911V283.32Z" fill="#C7C7C7"/>
<path d="M67.4508 283.32L110.483 266.748H440.878L483.911 283.32H67.4508Z" fill="#DBDBDB"/>
<path d="M114.33 277.447L142.102 266.748H409.268L437.04 277.447H114.33Z" fill="#263238"/>
<path d="M420.077 64.821H131.284V247.675H420.077V64.821Z" fill="white"/>
<path d="M420.085 64.821H131.046V71.8598H420.085V64.821Z" fill="#455A64"/>
<path d="M136.638 68.3447C136.638 68.6916 136.534 69.0305 136.341 69.3183C136.147 69.6061 135.872 69.8296 135.551 69.9603C135.229 70.091 134.876 70.123 134.537 70.0522C134.197 69.9813 133.886 69.8109 133.644 69.5626C133.402 69.3143 133.239 68.9994 133.177 68.6582C133.114 68.317 133.155 67.9649 133.294 67.647C133.432 67.329 133.663 67.0595 133.955 66.873C134.247 66.6865 134.589 66.5914 134.936 66.5999C135.391 66.611 135.824 66.7997 136.142 67.1257C136.46 67.4517 136.638 67.8892 136.638 68.3447Z" fill="#C7C7C7"/>
<path d="M143.762 68.3447C143.762 68.6916 143.658 69.0305 143.465 69.3183C143.271 69.6061 142.996 69.8296 142.675 69.9603C142.353 70.091 142 70.123 141.661 70.0522C141.321 69.9813 141.011 69.8109 140.768 69.5626C140.526 69.3143 140.363 68.9994 140.301 68.6582C140.239 68.317 140.279 67.9649 140.418 67.647C140.556 67.329 140.787 67.0595 141.079 66.873C141.372 66.6865 141.713 66.5914 142.06 66.5999C142.515 66.611 142.948 66.7997 143.266 67.1257C143.584 67.4517 143.762 67.8892 143.762 68.3447Z" fill="white"/>
<path d="M150.886 68.3446C150.886 68.6897 150.783 69.0271 150.592 69.314C150.4 69.6009 150.128 69.8246 149.809 69.9566C149.49 70.0887 149.139 70.1232 148.801 70.0559C148.462 69.9886 148.151 69.8224 147.907 69.5784C147.663 69.3344 147.497 69.0235 147.43 68.685C147.362 68.3466 147.397 67.9958 147.529 67.6769C147.661 67.3581 147.885 67.0856 148.172 66.8939C148.459 66.7022 148.796 66.5999 149.141 66.5999C149.604 66.5999 150.048 66.7837 150.375 67.1109C150.702 67.4381 150.886 67.8819 150.886 68.3446Z" fill="#0DA8EF"/>
<path d="M145.158 165.295H257.463V86.6436L145.158 86.6436V165.295Z" fill="#EBEBEB"/>
<path d="M158.282 109.002C158.282 110.842 158.828 112.641 159.85 114.171C160.872 115.701 162.325 116.893 164.025 117.597C165.725 118.301 167.595 118.485 169.4 118.126C171.204 117.767 172.862 116.881 174.163 115.58C175.464 114.279 176.35 112.622 176.709 110.817C177.068 109.013 176.883 107.142 176.179 105.442C175.475 103.743 174.283 102.29 172.753 101.267C171.223 100.245 169.425 99.6997 167.585 99.6997C165.118 99.6997 162.751 100.68 161.007 102.424C159.262 104.169 158.282 106.535 158.282 109.002Z" fill="#DBDBDB"/>
<path d="M195.007 148.35H257.471L226.235 106.024L195.007 148.35Z" fill="#C7C7C7"/>
<path d="M170.547 148.392H222.107L196.327 120.824L170.547 148.392Z" fill="#DBDBDB"/>
<path d="M257.463 148.349H145.158V165.295H257.463V148.349Z" fill="#DBDBDB"/>
<path d="M273.438 232.61H336.191V175.832H273.438V232.61Z" fill="#EBEBEB"/>
<path d="M281.549 188.241C281.267 189.656 281.447 191.125 282.063 192.43C282.679 193.734 283.699 194.806 284.971 195.487C286.243 196.168 287.701 196.421 289.128 196.209C290.556 195.998 291.877 195.333 292.897 194.313C293.918 193.292 294.583 191.971 294.794 190.544C295.006 189.116 294.752 187.659 294.072 186.386C293.391 185.114 292.319 184.094 291.014 183.478C289.709 182.862 288.241 182.682 286.826 182.965C285.524 183.225 284.328 183.865 283.388 184.804C282.449 185.743 281.809 186.939 281.549 188.241Z" fill="#DBDBDB"/>
<path d="M291.107 220.371H336.199L313.653 189.816L291.107 220.371Z" fill="#C7C7C7"/>
<path d="M273.447 220.397H310.674L292.061 200.497L273.447 220.397Z" fill="#DBDBDB"/>
<path d="M336.199 220.371H273.447V232.602H336.199V220.371Z" fill="#DBDBDB"/>
<path d="M374.108 86.6522H273.447V91.7334H374.108V86.6522Z" fill="#A6A6A6"/>
<path d="M395.999 97.1635H273.447V102.245H395.999V97.1635Z" fill="#DBDBDB"/>
<path d="M395.999 107.675H273.447V112.756H395.999V107.675Z" fill="#DBDBDB"/>
<path d="M395.999 118.195H273.447V123.276H395.999V118.195Z" fill="#DBDBDB"/>
<path d="M395.999 128.706H273.447V133.787H395.999V128.706Z" fill="#DBDBDB"/>
<path d="M354.805 139.217H273.447V144.298H354.805V139.217Z" fill="#DBDBDB"/>
<path d="M386.313 175.824H341.791V180.828H386.313V175.824Z" fill="#A6A6A6"/>
<path d="M395.99 186.182H341.791V191.186H395.99V186.182Z" fill="#DBDBDB"/>
<path d="M395.99 196.54H341.791V201.544H395.99V196.54Z" fill="#DBDBDB"/>
<path d="M395.99 206.889H341.791V211.894H395.99V206.889Z" fill="#DBDBDB"/>
<path d="M395.99 217.247H341.791V222.252H395.99V217.247Z" fill="#DBDBDB"/>
<path d="M378.576 227.606H341.791V232.61H378.576V227.606Z" fill="#DBDBDB"/>
<path d="M395.999 150.367H273.447V165.295H395.999V150.367Z" fill="#0DA8EF"/>
<path d="M257.463 175.824H145.158V190.752H257.463V175.824Z" fill="#A6A6A6"/>
<path d="M257.463 196.191H145.158V201.238H257.463V196.191Z" fill="#DBDBDB"/>
<path d="M257.463 206.642H145.158V211.69H257.463V206.642Z" fill="#DBDBDB"/>
<path d="M257.463 217.103H145.158V222.15H257.463V217.103Z" fill="#DBDBDB"/>
<path d="M222.107 227.554H145.158V232.601H222.107V227.554Z" fill="#DBDBDB"/>
<path d="M420.077 71.8512H412.357V247.666H420.077V71.8512Z" fill="#DBDBDB"/>
<path d="M416.213 163.865C415.685 163.865 415.178 163.656 414.805 163.282C414.431 162.909 414.221 162.402 414.221 161.874V75.5877C414.221 75.0595 414.431 74.5529 414.805 74.1794C415.178 73.8059 415.685 73.5961 416.213 73.5961C416.741 73.5961 417.248 73.8059 417.621 74.1794C417.995 74.5529 418.205 75.0595 418.205 75.5877V161.874C418.205 162.402 417.995 162.909 417.621 163.282C417.248 163.656 416.741 163.865 416.213 163.865Z" fill="#A6A6A6"/>
<path d="M242.006 163.67V288.426C241.982 291.113 240.893 293.681 238.978 295.567C237.064 297.452 234.48 298.502 231.793 298.487H35.6958C33.0087 298.502 30.4248 297.452 28.5104 295.567C26.596 293.681 25.5072 291.113 25.4824 288.426V163.67C25.5072 160.983 26.5963 158.417 28.511 156.532C30.4256 154.648 33.0095 153.6 35.6958 153.618H231.742C233.076 153.602 234.401 153.85 235.639 154.347C236.878 154.844 238.006 155.58 238.96 156.514C239.913 157.448 240.673 158.56 241.196 159.788C241.719 161.016 241.994 162.335 242.006 163.67Z" fill="#455A64"/>
<path d="M227.137 159.703H40.7515V292.205H227.137V159.703Z" fill="white"/>
<path d="M51.8418 226.839H134.528V168.938H51.8418V226.839Z" fill="#EBEBEB"/>
<path d="M61.5187 185.407C61.5271 186.752 61.9335 188.064 62.6868 189.178C63.4401 190.292 64.5064 191.159 65.7513 191.667C66.9962 192.176 68.3638 192.305 69.6818 192.037C70.9998 191.77 72.2091 191.118 73.1571 190.164C74.1051 189.21 74.7493 187.997 75.0086 186.677C75.2679 185.358 75.1306 183.991 74.614 182.749C74.0975 181.508 73.2247 180.447 72.106 179.7C70.9872 178.954 69.6724 178.556 68.3276 178.556C67.4298 178.556 66.5409 178.733 65.7121 179.078C64.8832 179.423 64.1307 179.928 63.4978 180.565C62.865 181.202 62.3644 181.957 62.0247 182.788C61.685 183.619 61.513 184.509 61.5187 185.407Z" fill="#DBDBDB"/>
<path d="M88.5416 214.371H134.527L111.53 183.211L88.5416 214.371Z" fill="#C7C7C7"/>
<path d="M70.532 214.396H108.492L89.5119 194.106L70.532 214.396Z" fill="#DBDBDB"/>
<path d="M134.527 214.371H51.8415V226.848H134.527V214.371Z" fill="#DBDBDB"/>
<path d="M160.759 281.856H216.047V243.138H160.759V281.856Z" fill="#EBEBEB"/>
<path d="M167.219 254.152C167.217 255.059 167.485 255.947 167.988 256.703C168.491 257.458 169.207 258.048 170.045 258.396C170.883 258.745 171.806 258.837 172.696 258.661C173.587 258.485 174.405 258.048 175.047 257.407C175.69 256.766 176.128 255.949 176.305 255.058C176.483 254.168 176.393 253.245 176.046 252.407C175.699 251.568 175.111 250.851 174.356 250.347C173.601 249.842 172.714 249.573 171.807 249.573C171.204 249.572 170.608 249.689 170.052 249.919C169.495 250.148 168.989 250.486 168.563 250.911C168.137 251.336 167.799 251.841 167.568 252.397C167.338 252.954 167.219 253.55 167.219 254.152Z" fill="#DBDBDB"/>
<path d="M185.305 273.515H216.048L200.676 252.679L185.305 273.515Z" fill="#C7C7C7"/>
<path d="M173.262 273.54H198.642L185.952 259.965L173.262 273.54Z" fill="#DBDBDB"/>
<path d="M216.047 273.523H160.759V281.864H216.047V273.523Z" fill="#DBDBDB"/>
<path d="M216.056 168.947H141.66V183.092H216.056V168.947Z" fill="#0DA8EF"/>
<path d="M216.056 188.463H141.66V190.446H216.056V188.463Z" fill="#DBDBDB"/>
<path d="M216.056 193.118H141.66V195.101H216.056V193.118Z" fill="#DBDBDB"/>
<path d="M216.056 197.774H141.66V199.757H216.056V197.774Z" fill="#DBDBDB"/>
<path d="M216.056 202.429H141.66V204.413H216.056V202.429Z" fill="#DBDBDB"/>
<path d="M216.056 207.085H141.66V209.068H216.056V207.085Z" fill="#DBDBDB"/>
<path d="M216.056 211.741H141.66V213.724H216.056V211.741Z" fill="#DBDBDB"/>
<path d="M184.428 216.396H141.66V218.379H184.428V216.396Z" fill="#DBDBDB"/>
<path d="M152.895 271.081H78.4985V273.064H152.895V271.081Z" fill="#DBDBDB"/>
<path d="M152.895 243.147H78.4985V245.13H152.895V243.147Z" fill="#DBDBDB"/>
<path d="M152.895 247.802H78.4985V249.786H152.895V247.802Z" fill="#DBDBDB"/>
<path d="M152.895 252.458H78.4985V254.441H152.895V252.458Z" fill="#DBDBDB"/>
<path d="M129.234 257.114H78.4985V259.097H129.234V257.114Z" fill="#DBDBDB"/>
<path d="M152.895 266.425H78.4985V268.408H152.895V266.425Z" fill="#DBDBDB"/>
<path d="M129.234 275.736H78.4985V277.719H129.234V275.736Z" fill="#DBDBDB"/>
<path d="M216.056 233.308H51.8415V237.989H216.056V233.308Z" fill="#455A64"/>
<path d="M73.1024 243.147H51.8415V281.864H73.1024V243.147Z" fill="#0DA8EF"/>
<path d="M34.4532 210.277H34.3256C33.738 210.277 33.2617 210.753 33.2617 211.341V240.747C33.2617 241.334 33.738 241.811 34.3256 241.811H34.4532C35.0408 241.811 35.5171 241.334 35.5171 240.747V211.341C35.5171 210.753 35.0408 210.277 34.4532 210.277Z" fill="#37474F"/>
<path d="M239.402 226.04C239.404 226.848 239.165 227.639 238.717 228.312C238.269 228.986 237.631 229.51 236.884 229.821C236.137 230.131 235.315 230.213 234.522 230.055C233.729 229.898 233 229.509 232.428 228.937C231.856 228.365 231.467 227.636 231.31 226.843C231.152 226.05 231.234 225.228 231.544 224.481C231.854 223.734 232.379 223.096 233.052 222.648C233.726 222.199 234.517 221.961 235.325 221.963C236.406 221.965 237.441 222.395 238.206 223.159C238.97 223.923 239.4 224.959 239.402 226.04Z" fill="#37474F"/>
<path d="M513.555 126.901H437.712C435.661 126.924 433.702 127.759 432.266 129.224C430.83 130.689 430.034 132.663 430.052 134.715V290.809C430.036 292.86 430.833 294.833 432.269 296.298C433.704 297.762 435.661 298.598 437.712 298.623H513.538C515.588 298.598 517.546 297.762 518.981 296.298C520.417 294.833 521.214 292.86 521.198 290.809V134.732C521.221 132.68 520.429 130.704 518.996 129.236C517.563 127.768 515.606 126.928 513.555 126.901ZM516.44 285.984C516.44 290.095 513.359 293.414 509.563 293.414H441.729C437.925 293.414 434.852 290.095 434.852 285.984V140.63C434.852 132.264 437.925 131.855 441.729 131.855H455.347C456.139 131.855 456.785 132.706 456.785 133.864V134.34C456.785 136.953 458.215 136.962 459.969 136.962H491.332C493.094 136.962 494.507 136.962 494.507 134.34V133.881C494.507 132.766 495.145 131.872 495.954 131.872H509.572C513.368 131.872 516.449 132.987 516.449 140.647L516.44 285.984Z" fill="#455A64"/>
<path d="M479.927 133.702H471.357C471.217 133.702 471.082 133.646 470.983 133.547C470.884 133.448 470.829 133.314 470.829 133.174C470.829 133.034 470.884 132.9 470.983 132.801C471.082 132.702 471.217 132.646 471.357 132.646H479.927C480.068 132.646 480.203 132.702 480.303 132.801C480.404 132.899 480.461 133.033 480.463 133.174C480.461 133.315 480.404 133.449 480.303 133.548C480.203 133.647 480.068 133.702 479.927 133.702Z" fill="white"/>
<path d="M516.441 140.63V285.984C516.441 290.094 513.36 293.414 509.564 293.414H441.73C437.925 293.414 434.853 290.094 434.853 285.984V140.63C434.853 132.264 437.925 131.855 441.73 131.855H455.347C456.139 131.855 456.786 132.706 456.786 133.864V134.34C456.786 136.953 458.216 136.962 459.969 136.962H491.333C493.094 136.962 494.507 136.962 494.507 134.34V133.881C494.507 132.766 495.146 131.872 495.954 131.872H509.572C513.36 131.855 516.441 132.97 516.441 140.63Z" fill="white"/>
<path d="M516.44 140.63V151.473H434.844V140.63C434.844 132.264 437.925 131.855 441.729 131.855H455.347C456.13 131.855 456.777 132.706 456.777 133.864V134.34C456.777 136.953 458.207 136.962 459.952 136.962H491.332C493.094 136.962 494.516 136.962 494.516 134.34V133.881C494.516 132.766 495.154 131.872 495.954 131.872H509.572C513.359 131.855 516.44 132.97 516.44 140.63Z" fill="#0DA8EF"/>
<path d="M442.581 146.179L440.172 143.924L442.581 141.668L442.955 142.06L440.972 143.924L442.955 145.788L442.581 146.179Z" fill="white"/>
<path d="M509.078 146.384H507.376V145.796C507.376 145.78 507.371 145.764 507.362 145.75C507.353 145.737 507.34 145.726 507.325 145.72L507.138 145.609C507.123 145.603 507.107 145.599 507.091 145.599C507.075 145.599 507.059 145.603 507.044 145.609L506.525 145.915L505.674 144.443L506.193 144.145C506.203 144.132 506.209 144.115 506.209 144.098C506.209 144.081 506.203 144.065 506.193 144.051V143.847C506.203 143.834 506.209 143.817 506.209 143.8C506.209 143.783 506.203 143.767 506.193 143.754L505.674 143.456L506.525 141.983L507.044 142.281C507.058 142.289 507.074 142.294 507.091 142.294C507.107 142.294 507.123 142.289 507.138 142.281L507.325 142.171C507.34 142.164 507.353 142.153 507.362 142.14C507.371 142.126 507.376 142.11 507.376 142.094V141.49H509.078V142.094C509.078 142.11 509.083 142.126 509.092 142.14C509.101 142.153 509.114 142.164 509.129 142.171L509.316 142.281C509.331 142.289 509.347 142.294 509.363 142.294C509.38 142.294 509.396 142.289 509.41 142.281L509.929 141.983L510.78 143.456L510.261 143.754C510.251 143.767 510.245 143.783 510.245 143.8C510.245 143.817 510.251 143.834 510.261 143.847V144.051C510.251 144.065 510.245 144.081 510.245 144.098C510.245 144.115 510.251 144.132 510.261 144.145L510.78 144.443L509.929 145.915L509.41 145.618C509.396 145.609 509.38 145.605 509.363 145.605C509.347 145.605 509.331 145.609 509.316 145.618L509.129 145.728C509.114 145.735 509.101 145.745 509.092 145.759C509.083 145.773 509.078 145.788 509.078 145.805V146.384ZM507.801 145.958H508.653V145.796C508.654 145.701 508.681 145.609 508.73 145.528C508.779 145.447 508.85 145.381 508.933 145.337C508.984 145.313 509.033 145.285 509.078 145.252C509.161 145.204 509.255 145.179 509.35 145.179C509.446 145.179 509.54 145.204 509.623 145.252L509.776 145.345L510.202 144.605L510.048 144.511C509.966 144.465 509.899 144.396 509.854 144.314C509.808 144.231 509.787 144.137 509.793 144.043V143.873C509.788 143.778 509.809 143.683 509.854 143.599C509.899 143.514 509.966 143.444 510.048 143.396L510.202 143.311L509.776 142.571L509.623 142.664C509.542 142.712 509.449 142.737 509.355 142.737C509.26 142.737 509.168 142.712 509.087 142.664L508.933 142.579C508.85 142.535 508.779 142.469 508.73 142.388C508.681 142.307 508.654 142.214 508.653 142.119V141.941H507.801V142.119C507.8 142.214 507.774 142.307 507.724 142.388C507.675 142.469 507.604 142.535 507.521 142.579C507.47 142.603 507.421 142.631 507.376 142.664C507.293 142.712 507.199 142.737 507.104 142.737C507.008 142.737 506.914 142.712 506.831 142.664L506.678 142.571L506.252 143.311L506.406 143.396C506.488 143.444 506.555 143.514 506.6 143.599C506.645 143.683 506.666 143.778 506.661 143.873V144.043C506.666 144.138 506.645 144.233 506.6 144.317C506.555 144.401 506.488 144.471 506.406 144.52L506.252 144.605L506.678 145.345L506.831 145.252C506.914 145.204 507.008 145.179 507.104 145.179C507.199 145.179 507.293 145.204 507.376 145.252C507.421 145.285 507.47 145.313 507.521 145.337C507.604 145.381 507.675 145.447 507.724 145.528C507.774 145.609 507.8 145.701 507.801 145.796V145.958ZM508.227 145.183C507.978 145.183 507.734 145.11 507.527 144.971C507.32 144.833 507.159 144.636 507.063 144.406C506.968 144.176 506.943 143.922 506.992 143.678C507.04 143.434 507.16 143.209 507.336 143.033C507.512 142.857 507.737 142.737 507.981 142.688C508.226 142.64 508.479 142.665 508.709 142.76C508.939 142.855 509.136 143.017 509.274 143.224C509.413 143.431 509.487 143.675 509.487 143.924C509.484 144.257 509.351 144.576 509.115 144.812C508.88 145.048 508.56 145.181 508.227 145.183ZM508.227 143.09C508.059 143.09 507.894 143.14 507.754 143.233C507.614 143.327 507.505 143.46 507.441 143.615C507.376 143.771 507.359 143.942 507.392 144.107C507.425 144.272 507.506 144.424 507.625 144.543C507.744 144.662 507.896 144.743 508.061 144.776C508.226 144.808 508.397 144.792 508.553 144.727C508.708 144.663 508.841 144.554 508.935 144.414C509.028 144.274 509.078 144.109 509.078 143.941C509.078 143.715 508.988 143.499 508.829 143.339C508.669 143.179 508.453 143.09 508.227 143.09Z" fill="white"/>
<path d="M452.973 135.115L452.845 135.251L452.768 135.328C452.602 135.158 452.403 135.023 452.184 134.931C451.965 134.839 451.73 134.791 451.492 134.791C451.254 134.791 451.019 134.839 450.799 134.931C450.58 135.023 450.382 135.158 450.215 135.328L450.147 135.251L450.019 135.123C450.069 135.071 450.123 135.022 450.181 134.979C450.298 134.881 450.427 134.798 450.564 134.732C450.726 134.654 450.898 134.596 451.075 134.562H451.33H451.722C451.881 134.581 452.038 134.618 452.19 134.672C452.299 134.715 452.404 134.766 452.505 134.825C452.613 134.883 452.716 134.952 452.811 135.03L452.947 135.157L452.973 135.115Z" fill="white"/>
<path d="M450.649 135.736L450.445 135.532C450.583 135.393 450.748 135.283 450.929 135.207C451.11 135.132 451.304 135.093 451.5 135.093C451.696 135.093 451.89 135.132 452.072 135.207C452.253 135.283 452.417 135.393 452.556 135.532L452.351 135.745C452.125 135.52 451.819 135.394 451.5 135.394C451.181 135.394 450.875 135.52 450.649 135.745V135.736Z" fill="white"/>
<path d="M452.181 135.94L451.977 136.153C451.921 136.097 451.855 136.052 451.782 136.021C451.709 135.99 451.631 135.974 451.551 135.974C451.472 135.974 451.394 135.99 451.321 136.021C451.248 136.052 451.181 136.097 451.126 136.153L450.922 135.94C451.09 135.776 451.316 135.684 451.551 135.684C451.787 135.684 452.013 135.776 452.181 135.94Z" fill="white"/>
<path d="M451.687 136.34C451.687 136.377 451.676 136.414 451.656 136.444C451.635 136.475 451.606 136.499 451.572 136.513C451.537 136.527 451.5 136.531 451.463 136.524C451.427 136.517 451.394 136.499 451.368 136.473C451.341 136.447 451.324 136.413 451.316 136.377C451.309 136.341 451.313 136.303 451.327 136.269C451.341 136.234 451.365 136.205 451.396 136.185C451.427 136.164 451.463 136.153 451.5 136.153C451.525 136.152 451.55 136.156 451.573 136.165C451.596 136.174 451.617 136.188 451.635 136.205C451.653 136.223 451.666 136.244 451.675 136.267C451.684 136.29 451.688 136.315 451.687 136.34Z" fill="white"/>
<path d="M440.172 135.515C440.172 135.373 440.229 135.236 440.329 135.136C440.43 135.035 440.566 134.979 440.708 134.979C440.851 134.979 440.989 135.035 441.09 135.135C441.192 135.235 441.251 135.372 441.253 135.515C441.253 135.659 441.196 135.798 441.093 135.9C440.991 136.002 440.853 136.06 440.708 136.06C440.565 136.057 440.429 135.999 440.329 135.897C440.228 135.795 440.172 135.658 440.172 135.515Z" fill="white"/>
<path d="M441.874 135.515C441.874 135.373 441.931 135.236 442.031 135.136C442.132 135.035 442.268 134.979 442.41 134.979C442.553 134.979 442.691 135.035 442.792 135.135C442.894 135.235 442.953 135.372 442.955 135.515C442.955 135.659 442.898 135.798 442.795 135.9C442.693 136.002 442.555 136.06 442.41 136.06C442.267 136.057 442.131 135.999 442.031 135.897C441.93 135.795 441.874 135.658 441.874 135.515Z" fill="white"/>
<path d="M443.576 135.515C443.593 135.383 443.657 135.262 443.756 135.174C443.856 135.087 443.984 135.038 444.117 135.038C444.249 135.038 444.378 135.087 444.477 135.174C444.577 135.262 444.641 135.383 444.657 135.515C444.667 135.592 444.66 135.669 444.637 135.743C444.615 135.817 444.576 135.885 444.525 135.943C444.474 136.001 444.411 136.047 444.341 136.079C444.27 136.111 444.194 136.128 444.117 136.128C444.04 136.128 443.963 136.111 443.893 136.079C443.822 136.047 443.759 136.001 443.708 135.943C443.657 135.885 443.619 135.817 443.596 135.743C443.573 135.669 443.567 135.592 443.576 135.515Z" fill="white"/>
<path d="M445.278 135.515C445.278 135.407 445.31 135.302 445.37 135.212C445.43 135.123 445.515 135.053 445.615 135.012C445.714 134.97 445.824 134.96 445.929 134.981C446.035 135.002 446.132 135.053 446.208 135.13C446.284 135.206 446.336 135.303 446.357 135.409C446.378 135.514 446.368 135.624 446.326 135.723C446.285 135.823 446.215 135.908 446.126 135.968C446.036 136.028 445.931 136.06 445.823 136.06C445.679 136.06 445.54 136.002 445.438 135.9C445.336 135.798 445.278 135.659 445.278 135.515Z" fill="white"/>
<path d="M446.981 135.515C446.983 135.372 447.041 135.235 447.143 135.135C447.245 135.035 447.382 134.979 447.525 134.979C447.668 134.979 447.804 135.035 447.905 135.136C448.005 135.236 448.062 135.373 448.062 135.515C448.062 135.658 448.005 135.795 447.905 135.897C447.805 135.999 447.668 136.057 447.525 136.06C447.381 136.06 447.242 136.002 447.14 135.9C447.038 135.798 446.981 135.659 446.981 135.515Z" fill="white"/>
<path d="M510.312 136.689H505.921V134.664H510.312V136.689ZM506.133 136.477H510.1V134.876H506.133V136.477Z" fill="white"/>
<path d="M509.112 135.004H506.278V136.349H509.112V135.004Z" fill="white"/>
<path d="M510.712 135.132H510.321V136.221H510.712V135.132Z" fill="white"/>
<path d="M447.244 284.528H446.623V287.379H445.466V285.924H443.414V287.379H442.257V284.528H441.636L444.444 281.634L447.244 284.528Z" fill="#EBEBEB"/>
<path d="M509.665 281.634H502.899V282.605H509.665V281.634Z" fill="#EBEBEB"/>
<path d="M509.665 284.017H502.899V284.988H509.665V284.017Z" fill="#EBEBEB"/>
<path d="M509.665 286.409H502.899V287.379H509.665V286.409Z" fill="#EBEBEB"/>
<path d="M447.117 165.746C446.398 166.195 445.568 166.432 444.721 166.432C443.874 166.432 443.044 166.195 442.325 165.746C441.483 165.225 440.833 164.444 440.475 163.52C440.117 162.597 440.07 161.582 440.341 160.629C440.612 159.676 441.186 158.838 441.977 158.241C442.767 157.644 443.73 157.321 444.721 157.321C445.711 157.321 446.675 157.644 447.465 158.241C448.256 158.838 448.83 159.676 449.101 160.629C449.372 161.582 449.325 162.597 448.967 163.52C448.609 164.444 447.959 165.225 447.117 165.746Z" fill="#DBDBDB"/>
<path d="M446.104 161.355C446.104 161.629 446.023 161.898 445.87 162.126C445.717 162.355 445.5 162.532 445.246 162.637C444.992 162.742 444.712 162.769 444.443 162.715C444.174 162.66 443.927 162.527 443.733 162.333C443.539 162.138 443.408 161.89 443.355 161.62C443.303 161.35 443.331 161.071 443.438 160.818C443.544 160.564 443.723 160.348 443.952 160.197C444.182 160.046 444.451 159.966 444.725 159.967C445.092 159.97 445.443 160.117 445.701 160.377C445.959 160.637 446.104 160.988 446.104 161.355Z" fill="white"/>
<path d="M447.117 165.176V165.746C446.398 166.195 445.568 166.432 444.721 166.432C443.874 166.432 443.044 166.195 442.325 165.746V165.176C442.361 164.565 442.63 163.992 443.075 163.572C443.52 163.152 444.109 162.919 444.721 162.919C445.333 162.919 445.921 163.152 446.367 163.572C446.812 163.992 447.08 164.565 447.117 165.176Z" fill="white"/>
<path d="M483.919 157.584H454.981V159.967H483.919V157.584Z" fill="#EBEBEB"/>
<path d="M480.242 161.559H454.981V163.142H480.242V161.559Z" fill="#EBEBEB"/>
<path d="M496.746 164.606H454.981V166.189H496.746V164.606Z" fill="#EBEBEB"/>
<path d="M434.853 227.325H516.441V170.198H434.853V227.325Z" fill="#EBEBEB"/>
<path d="M444.385 186.437C444.385 187.774 444.782 189.08 445.524 190.192C446.267 191.303 447.322 192.169 448.557 192.681C449.792 193.192 451.151 193.326 452.461 193.065C453.772 192.804 454.976 192.161 455.922 191.216C456.867 190.271 457.51 189.066 457.771 187.755C458.032 186.445 457.898 185.086 457.387 183.851C456.875 182.616 456.009 181.561 454.898 180.818C453.786 180.076 452.48 179.679 451.143 179.679C449.351 179.679 447.632 180.391 446.365 181.659C445.097 182.926 444.385 184.645 444.385 186.437Z" fill="#DBDBDB"/>
<path d="M471.076 215.018H516.44L493.758 184.267L471.076 215.018Z" fill="#C7C7C7"/>
<path d="M453.288 215.043H490.745L472.012 195.025L453.288 215.043Z" fill="#DBDBDB"/>
<path d="M516.441 215.017H434.853V227.325H516.441V215.017Z" fill="#DBDBDB"/>
<path d="M447.117 257.446C446.398 257.894 445.568 258.131 444.721 258.131C443.874 258.131 443.044 257.894 442.325 257.446C441.483 256.925 440.833 256.143 440.475 255.219C440.117 254.296 440.07 253.281 440.341 252.328C440.612 251.375 441.186 250.537 441.977 249.94C442.767 249.343 443.73 249.02 444.721 249.02C445.711 249.02 446.675 249.343 447.465 249.94C448.256 250.537 448.83 251.375 449.101 252.328C449.372 253.281 449.325 254.296 448.967 255.219C448.609 256.143 447.959 256.925 447.117 257.446Z" fill="#DBDBDB"/>
<path d="M444.726 254.441C445.492 254.441 446.113 253.82 446.113 253.054C446.113 252.288 445.492 251.667 444.726 251.667C443.959 251.667 443.338 252.288 443.338 253.054C443.338 253.82 443.959 254.441 444.726 254.441Z" fill="white"/>
<path d="M447.117 256.875V257.446C446.398 257.894 445.568 258.132 444.721 258.132C443.874 258.132 443.044 257.894 442.325 257.446V256.875C442.361 256.265 442.63 255.691 443.075 255.271C443.52 254.852 444.109 254.618 444.721 254.618C445.333 254.618 445.921 254.852 446.367 255.271C446.812 255.691 447.08 256.265 447.117 256.875Z" fill="white"/>
<path d="M492.192 249.283H454.981V251.667H492.192V249.283Z" fill="#EBEBEB"/>
<path d="M502.491 253.258H454.981V254.841H502.491V253.258Z" fill="#EBEBEB"/>
<path d="M471.161 256.305H454.981V257.888H471.161V256.305Z" fill="#EBEBEB"/>
<path d="M516.424 261.897H434.853V275.847H516.424V261.897Z" fill="#EBEBEB"/>
<path d="M457.501 275.855H444.785C445.252 274.543 446.115 273.408 447.253 272.605C448.391 271.802 449.75 271.371 451.143 271.371C452.536 271.371 453.895 271.802 455.033 272.605C456.171 273.408 457.033 274.543 457.501 275.855Z" fill="#DBDBDB"/>
<path d="M440.333 234.014C440.207 233.496 440.238 232.952 440.421 232.45C440.604 231.949 440.931 231.513 441.362 231.198C441.793 230.883 442.307 230.703 442.84 230.68C443.373 230.658 443.901 230.794 444.357 231.071C444.813 231.348 445.176 231.755 445.401 232.239C445.626 232.722 445.703 233.262 445.621 233.789C445.539 234.317 445.303 234.808 444.942 235.201C444.581 235.594 444.112 235.871 443.593 235.997C443.249 236.082 442.891 236.099 442.541 236.045C442.19 235.991 441.854 235.868 441.551 235.684C441.248 235.5 440.984 235.257 440.775 234.971C440.566 234.684 440.416 234.359 440.333 234.014Z" fill="#EBEBEB"/>
<path fill-rule="evenodd" clip-rule="evenodd" d="M442.589 234.448C442.513 234.406 442.453 234.338 442.359 234.346C442.266 234.355 442.359 234.346 442.359 234.304V233.223C442.353 233.214 442.35 233.204 442.35 233.193C442.35 233.182 442.353 233.172 442.359 233.163C442.632 233.027 442.751 232.755 442.921 232.516C443.011 232.396 443.075 232.258 443.109 232.112C443.142 231.965 443.145 231.813 443.117 231.665C443.117 231.589 443.117 231.555 443.219 231.538C443.255 231.523 443.294 231.521 443.332 231.532C443.369 231.542 443.401 231.566 443.423 231.597C443.503 231.745 443.555 231.907 443.576 232.074C443.593 232.207 443.593 232.341 443.576 232.474C443.576 232.576 443.534 232.67 443.517 232.772C443.5 232.874 443.568 232.772 443.593 232.772H444.504C444.632 232.772 444.7 232.772 444.717 232.891C444.726 232.944 444.718 232.998 444.693 233.046C444.668 233.093 444.629 233.132 444.581 233.155C444.581 233.155 444.521 233.155 444.521 233.197C444.521 233.24 444.521 233.197 444.581 233.24C444.64 233.282 444.666 233.47 444.581 233.563C444.496 233.657 444.496 233.563 444.496 233.614C444.496 233.665 444.547 233.614 444.572 233.682C444.592 233.707 444.605 233.737 444.611 233.768C444.618 233.799 444.616 233.831 444.608 233.861C444.6 233.892 444.585 233.92 444.564 233.944C444.543 233.967 444.517 233.986 444.487 233.997H444.428C444.428 233.997 444.428 233.997 444.428 234.04C444.458 234.054 444.484 234.077 444.502 234.106C444.521 234.135 444.53 234.168 444.53 234.202C444.53 234.236 444.521 234.269 444.502 234.297C444.484 234.326 444.458 234.349 444.428 234.363C444.375 234.38 444.318 234.38 444.266 234.363H442.836C442.83 234.389 442.818 234.413 442.801 234.432C442.783 234.452 442.761 234.466 442.736 234.475C442.712 234.483 442.685 234.486 442.659 234.481C442.634 234.476 442.609 234.465 442.589 234.448Z" fill="white"/>
<path fill-rule="evenodd" clip-rule="evenodd" d="M441.227 233.819C441.227 233.589 441.227 233.359 441.227 233.129C441.227 233.087 441.227 233.061 441.296 233.061C441.568 233.061 441.849 233.061 442.147 233.061C442.198 233.061 442.206 233.061 442.206 233.129V234.508C442.206 234.568 442.206 234.585 442.13 234.585H441.321C441.253 234.585 441.244 234.585 441.244 234.5C441.236 234.312 441.227 234.048 441.227 233.819Z" fill="white"/>
<path d="M446.002 234.014C445.876 233.496 445.907 232.953 446.09 232.452C446.273 231.951 446.6 231.516 447.031 231.201C447.461 230.886 447.975 230.706 448.508 230.683C449.04 230.66 449.568 230.795 450.024 231.071C450.48 231.348 450.843 231.754 451.069 232.237C451.294 232.72 451.372 233.259 451.291 233.786C451.211 234.313 450.976 234.804 450.616 235.198C450.256 235.592 449.788 235.87 449.27 235.998C448.926 236.084 448.567 236.101 448.216 236.048C447.864 235.995 447.527 235.872 447.223 235.688C446.919 235.503 446.654 235.261 446.445 234.973C446.235 234.686 446.085 234.36 446.002 234.014Z" fill="#0DA8EF"/>
<path d="M450.002 233.717C450.002 234.082 449.857 234.433 449.599 234.692C449.34 234.95 448.989 235.095 448.624 235.095C448.258 235.095 447.907 234.95 447.649 234.692C447.39 234.433 447.245 234.082 447.245 233.717C447.157 233.588 447.097 233.442 447.071 233.288C447.044 233.134 447.051 232.977 447.09 232.826C447.13 232.675 447.201 232.534 447.3 232.413C447.399 232.292 447.522 232.194 447.662 232.125C448.428 231.895 448.624 233.231 448.624 233.231C448.624 233.231 448.819 231.895 449.594 232.125C450.13 232.287 450.343 233.027 450.002 233.717Z" fill="white"/>
<path d="M493.758 233.027H455.432V234.585H493.758V233.027Z" fill="#EBEBEB"/>
<path d="M434.853 242.33L445.049 242.177L455.245 242.092L475.638 242.015L496.031 242.092L506.227 242.177L516.424 242.33L506.227 242.492L496.031 242.577L475.638 242.653L455.245 242.577L445.049 242.492L434.853 242.33Z" fill="#EBEBEB"/>
<path d="M312.317 316.062C311.679 314.258 278.732 272.553 276.519 271.804C276.272 271.702 262.152 282.205 262.152 282.205C261.573 283.005 234.201 277.813 234.201 277.813L234.619 310.691L284.23 308.598C284.23 308.598 291.039 312.402 297.218 315.483C299.855 316.9 302.579 318.151 305.372 319.228C307.883 319.798 312.964 317.849 312.317 316.062Z" fill="#EB9481"/>
<path d="M305.389 319.211C302.598 318.135 299.877 316.884 297.244 315.466C291.048 312.385 284.256 308.581 284.256 308.581L273.191 309.049L255.318 281.498C259.131 282.094 261.965 282.434 262.127 282.179C262.127 282.179 276.238 271.685 276.494 271.787C278.706 272.553 311.653 314.258 312.292 316.045C312.93 317.832 307.883 319.807 305.389 319.211Z" fill="white"/>
<path d="M312.598 316.105C311.926 314.266 278.834 272.587 276.562 271.796C275.711 271.489 268.783 275.966 262.135 282.188L283.498 309.023C283.498 309.023 302.904 318.794 305.483 319.399C308.062 320.003 313.279 317.952 312.598 316.105Z" fill="#0DA8EF"/>
<path d="M310.47 316.871C304.751 310.062 282.332 281.847 277.2 274.647C277.157 274.587 277.2 274.553 277.2 274.647C283.013 281.311 305.21 309.662 310.538 316.811C310.7 316.871 310.589 316.981 310.47 316.871Z" fill="#263238"/>
<path d="M301.874 317.909C301.235 317.148 300.761 316.262 300.483 315.309C300.205 314.355 300.128 313.353 300.257 312.368C300.474 310.596 301.368 308.977 302.751 307.849C302.793 307.849 302.853 307.891 302.81 307.934C301.614 309.268 300.885 310.956 300.731 312.741C300.578 314.526 301.009 316.313 301.959 317.832C302.002 317.892 301.917 317.96 301.874 317.909Z" fill="#263238"/>
<path d="M285.958 310.666C283.694 307.9 282.111 303.857 283.022 300.316C283.022 300.18 283.252 300.231 283.269 300.316C283.93 303.778 284.96 307.159 286.341 310.402C286.376 310.453 286.389 310.516 286.378 310.576C286.367 310.637 286.332 310.691 286.282 310.726C286.231 310.761 286.168 310.774 286.107 310.763C286.047 310.752 285.993 310.717 285.958 310.666Z" fill="#263238"/>
<path d="M288.511 312.155C286.256 309.389 284.664 305.347 285.575 301.806C285.575 301.67 285.805 301.721 285.83 301.806C286.485 305.268 287.512 308.65 288.894 311.892C288.929 311.942 288.943 312.005 288.931 312.066C288.92 312.126 288.885 312.18 288.835 312.215C288.81 312.232 288.781 312.245 288.751 312.251C288.721 312.257 288.691 312.258 288.661 312.252C288.6 312.241 288.546 312.206 288.511 312.155Z" fill="#263238"/>
<path d="M291.065 313.645C288.809 310.879 287.226 306.836 288.128 303.295C288.128 303.159 288.358 303.21 288.384 303.295C289.044 306.757 290.071 310.137 291.448 313.381C291.483 313.432 291.496 313.494 291.485 313.555C291.474 313.616 291.439 313.67 291.388 313.705C291.337 313.74 291.275 313.753 291.214 313.742C291.153 313.731 291.1 313.696 291.065 313.645Z" fill="#263238"/>
<path d="M293.627 315.168C291.363 312.402 289.779 308.36 290.682 304.819C290.682 304.683 290.911 304.734 290.937 304.819C291.596 308.281 292.626 311.663 294.01 314.905C294.045 314.955 294.058 315.018 294.047 315.079C294.036 315.139 294.001 315.193 293.95 315.228C293.925 315.245 293.896 315.258 293.867 315.264C293.837 315.27 293.806 315.271 293.776 315.265C293.715 315.254 293.662 315.219 293.627 315.168Z" fill="#263238"/>
<path d="M271.974 281.66C269.489 278.511 274.374 274.655 276.86 277.804C279.345 280.954 274.459 284.809 271.974 281.66Z" fill="#263238"/>
<path d="M284.818 316.13C285.567 313.075 284.962 309.806 284.758 306.717C284.748 306.649 284.722 306.585 284.682 306.53C284.642 306.474 284.59 306.429 284.529 306.397C284.469 306.366 284.402 306.349 284.334 306.348C284.265 306.348 284.198 306.363 284.137 306.393C284.127 306.382 284.115 306.374 284.102 306.368C284.089 306.362 284.075 306.359 284.06 306.359C284.046 306.359 284.031 306.362 284.018 306.368C284.005 306.374 283.993 306.382 283.984 306.393C281.591 308.637 279.83 311.469 278.877 314.607C278.358 316.445 278.622 319.143 280.92 319.628C283.218 320.113 284.384 317.917 284.818 316.13ZM282.605 318.096C279.336 320.241 279.498 315.636 279.941 314.3C280.235 313.424 280.593 312.57 281.013 311.747C281.895 310.076 282.861 308.451 283.907 306.878C283.907 308.402 284.052 309.908 284.111 311.423C284.188 313.27 284.401 316.922 282.605 318.096Z" fill="#263238"/>
<path d="M274.298 297.857C272.647 299.559 273.906 301.925 275.362 303.168C277.891 305.265 280.93 306.657 284.171 307.202C284.247 307.202 284.281 307.159 284.281 307.1C284.35 307.093 284.416 307.069 284.473 307.032C284.531 306.994 284.579 306.943 284.613 306.883C284.647 306.823 284.666 306.756 284.67 306.687C284.673 306.618 284.659 306.55 284.63 306.487C283.098 303.798 281.796 300.742 279.524 298.606C278.162 297.355 275.881 296.282 274.298 297.857ZM281.473 302.887C282.264 304.189 282.979 305.525 283.805 306.802C282.103 306.01 280.349 305.296 278.698 304.334C277.902 303.881 277.137 303.374 276.409 302.819C275.302 301.968 272.638 298.189 276.545 298.18C278.724 298.146 280.562 301.338 281.49 302.887H281.473Z" fill="#263238"/>
<path d="M232.593 269.974L210.217 268.212C210.217 268.212 177.875 258.85 159.218 263.744C137.804 269.37 134.783 294.384 156.554 304.41C178.121 314.317 272.91 310.674 272.91 310.674L252.586 280.57C252.586 280.57 221.367 273.242 194.037 274.732L232.729 279.183L232.593 269.974Z" fill="#37474F"/>
<path d="M232.363 276.34C229.035 275.796 225.665 275.489 222.311 275.208C218.958 274.928 215.502 274.647 212.098 274.434C205.324 273.991 198.532 273.889 191.748 274.128C191.109 274.128 190.479 274.187 189.841 274.23C189.704 274.19 189.565 274.159 189.424 274.136C189.101 274.059 188.769 273.983 188.445 273.932C187.824 273.83 187.211 273.753 186.59 273.668C185.305 273.498 184.037 273.387 182.734 273.174C182.658 273.174 182.624 273.285 182.734 273.293C184.028 273.557 185.288 273.898 186.59 274.145L187.705 274.357C185.22 274.536 182.743 274.783 180.266 275.064C180.189 275.064 180.189 275.191 180.266 275.183C183.671 274.911 187.075 274.817 190.428 274.808C193.782 274.8 197.144 274.808 200.506 274.919C207.315 275.166 214.123 275.634 220.864 276.204C224.66 276.519 228.473 276.911 232.286 276.987C232.661 277.004 232.737 276.4 232.363 276.34Z" fill="#263238"/>
<path d="M263.233 309.985C261.982 308.07 260.901 306.019 259.752 304.027L256.28 298.07C253.965 294.112 245.675 280.817 244.866 279.89C244.815 279.83 244.713 279.89 244.739 279.975C245.139 281.005 250.322 289.814 251.547 291.78C253.931 295.703 256.433 299.55 258.893 303.423C259.599 304.53 260.323 305.627 261.037 306.725C261.752 307.823 262.51 308.904 263.165 310.036C263.14 310.121 263.233 310.062 263.233 309.985Z" fill="#263238"/>
<path d="M151.882 322.122C152.435 320.292 183.373 277.081 185.544 276.204C185.79 276.094 200.396 285.907 200.396 285.907C201.008 286.682 228.099 280.205 228.099 280.205L229.24 313.066L179.586 313.322C179.586 313.322 172.99 317.441 166.938 320.82C164.37 322.358 161.709 323.737 158.972 324.948C156.486 325.654 151.32 323.944 151.882 322.122Z" fill="#EB9481"/>
<path d="M158.954 324.948C161.691 323.74 164.349 322.361 166.912 320.82C172.955 317.415 179.56 313.321 179.56 313.321L190.624 313.27L207.179 284.903C203.4 285.677 200.582 286.154 200.37 285.907C200.37 285.907 185.765 276.085 185.518 276.204C183.347 277.055 152.409 320.292 151.856 322.122C151.303 323.952 156.486 325.654 158.954 324.948Z" fill="white"/>
<path d="M151.592 322.19C152.171 320.318 183.262 277.081 185.484 276.23C186.335 275.881 193.459 280.026 200.395 285.916L180.317 313.747C180.317 313.747 161.405 324.42 158.852 325.143C156.299 325.867 151.013 324.063 151.592 322.19Z" fill="#0DA8EF"/>
<path d="M153.771 322.829C159.159 315.713 180.215 286.52 185.007 279.073C185.007 279.013 185.007 278.988 184.956 279.073C179.467 286.001 158.64 315.373 153.652 322.769C153.542 322.88 153.652 322.965 153.771 322.829Z" fill="#263238"/>
<path d="M162.41 323.475C163.009 322.684 163.438 321.777 163.67 320.812C163.901 319.846 163.93 318.843 163.754 317.866C163.468 316.113 162.517 314.537 161.099 313.466C161.099 313.466 160.997 313.517 161.031 313.56C162.289 314.836 163.098 316.486 163.338 318.262C163.577 320.038 163.234 321.843 162.359 323.407C162.357 323.415 162.358 323.423 162.36 323.431C162.362 323.438 162.365 323.446 162.37 323.452C162.375 323.458 162.381 323.464 162.387 323.468C162.394 323.472 162.402 323.474 162.41 323.475Z" fill="#263238"/>
<path d="M177.96 315.483C180.088 312.615 181.483 308.521 180.403 305.015C180.403 304.878 180.173 304.938 180.156 305.057C179.671 308.543 178.815 311.967 177.602 315.271C177.594 315.315 177.599 315.361 177.618 315.403C177.637 315.444 177.667 315.479 177.707 315.502C177.746 315.525 177.791 315.536 177.836 315.533C177.881 315.529 177.925 315.512 177.96 315.483Z" fill="#263238"/>
<path d="M175.475 317.092C177.603 314.224 178.998 310.13 177.926 306.623C177.926 306.487 177.688 306.547 177.671 306.666C177.186 310.152 176.33 313.575 175.117 316.879C175.109 316.924 175.114 316.97 175.133 317.011C175.151 317.053 175.182 317.088 175.221 317.111C175.26 317.134 175.306 317.145 175.351 317.141C175.396 317.138 175.44 317.121 175.475 317.092Z" fill="#263238"/>
<path d="M173.015 318.701C175.134 315.832 176.53 311.738 175.457 308.232C175.415 308.096 175.228 308.155 175.211 308.232C174.722 311.717 173.866 315.14 172.657 318.445C172.631 318.493 172.624 318.548 172.636 318.601C172.648 318.653 172.679 318.7 172.723 318.731C172.767 318.762 172.821 318.777 172.875 318.771C172.928 318.765 172.978 318.74 173.015 318.701Z" fill="#263238"/>
<path d="M170.512 320.318C172.64 317.441 174.036 313.347 172.955 309.84C172.955 309.704 172.725 309.764 172.708 309.883C172.224 313.369 171.368 316.793 170.155 320.096C170.144 320.142 170.148 320.189 170.165 320.232C170.183 320.275 170.214 320.312 170.254 320.336C170.293 320.361 170.34 320.372 170.386 320.369C170.432 320.366 170.477 320.348 170.512 320.318Z" fill="#263238"/>
<path d="M190.556 285.856C192.888 282.596 187.824 278.97 185.492 282.23C183.16 285.49 188.216 289.116 190.556 285.856Z" fill="#263238"/>
<path d="M183.441 324.182C185.714 323.594 185.85 320.888 185.237 319.075C184.131 315.981 182.229 313.233 179.722 311.109C179.662 311.058 179.611 311.109 179.577 311.109C179.514 311.082 179.445 311.07 179.376 311.074C179.307 311.079 179.24 311.099 179.181 311.134C179.121 311.168 179.071 311.217 179.033 311.274C178.996 311.332 178.972 311.398 178.964 311.466C178.913 314.556 178.462 317.849 179.356 320.871C179.875 322.658 181.288 324.743 183.441 324.182ZM179.824 316.19C179.824 314.675 179.875 313.16 179.824 311.645C180.943 313.164 181.983 314.741 182.939 316.369C183.393 317.161 183.794 317.983 184.139 318.828C184.641 320.147 184.99 324.735 181.654 322.76C179.824 321.662 179.824 318.003 179.824 316.19Z" fill="#263238"/>
<path d="M183.832 303.134C181.628 305.381 180.471 308.496 179.075 311.253C179.049 311.317 179.039 311.386 179.045 311.454C179.051 311.523 179.073 311.589 179.11 311.647C179.146 311.705 179.196 311.754 179.255 311.789C179.314 311.824 179.381 311.845 179.449 311.849C179.448 311.864 179.449 311.878 179.455 311.892C179.46 311.906 179.468 311.918 179.479 311.928C179.49 311.938 179.502 311.945 179.517 311.949C179.531 311.953 179.545 311.954 179.56 311.951C182.77 311.25 185.74 309.718 188.173 307.508C189.56 306.198 190.727 303.746 188.982 302.155C187.237 300.563 185.118 301.823 183.832 303.134ZM186.743 302.572C190.641 302.402 188.156 306.274 187.092 307.202C186.392 307.79 185.652 308.33 184.879 308.819C183.269 309.804 181.61 310.708 179.909 311.526C180.675 310.215 181.33 308.845 182.054 307.508C182.913 305.917 184.59 302.665 186.743 302.572Z" fill="#263238"/>
<path d="M229.333 270.059L251.607 269.472C251.607 269.472 274.587 257.65 293.499 261.667C315.151 266.263 318.624 293.218 302.793 303.202C282.741 315.849 192.003 315.909 192.003 315.909L210.728 282.171C210.728 282.171 240.713 275.021 268.084 275.217L229.64 281.498L229.333 270.059Z" fill="#37474F"/>
<path d="M209.468 284.375C209.491 284.321 209.505 284.263 209.511 284.205V284.06L209.588 283.737C209.647 283.515 209.724 283.303 209.8 283.081C209.877 282.86 209.971 282.656 210.056 282.443C210.16 282.236 210.279 282.036 210.413 281.847C210.413 281.847 210.413 281.847 210.464 281.805H210.507H210.558C213.86 281.098 236.304 277.277 239.649 276.809C242.994 276.34 246.39 275.957 249.777 275.557C256.521 274.792 263.299 274.366 270.085 274.281C270.723 274.281 271.362 274.281 272 274.281C272.134 274.235 272.27 274.198 272.409 274.17C272.732 274.085 273.055 273.991 273.379 273.923C273.992 273.787 274.604 273.676 275.217 273.566C276.494 273.336 277.771 273.166 279.047 272.893C279.124 272.893 279.158 272.996 279.047 273.013C277.771 273.336 276.494 273.736 275.243 274.051L274.136 274.315C276.63 274.383 279.115 274.511 281.609 274.672C281.625 274.672 281.64 274.679 281.651 274.69C281.662 274.701 281.669 274.716 281.669 274.732C281.669 274.748 281.662 274.763 281.651 274.774C281.64 274.785 281.625 274.791 281.609 274.791C278.205 274.681 274.8 274.749 271.438 274.894C268.076 275.038 264.731 275.2 261.378 275.489C254.569 276.051 247.845 276.843 241.104 277.728C237.325 278.23 214.439 282.188 210.635 282.451H210.583C210.56 282.542 210.528 282.63 210.49 282.715L210.183 283.337C210.081 283.532 209.979 283.728 209.86 283.924L209.681 284.205L209.588 284.341C209.588 284.384 209.502 284.443 209.494 284.486C209.485 284.528 209.426 284.452 209.468 284.375Z" fill="#263238"/>
<path d="M199.016 313.73C200.183 311.755 201.161 309.662 202.217 307.628L205.4 301.517C207.528 297.457 215.179 283.779 215.945 282.792C215.988 282.732 216.098 282.792 216.073 282.869C215.724 283.924 210.966 292.963 209.868 294.98C207.672 299.014 205.357 302.98 203.059 306.964C202.412 308.104 201.732 309.228 201.076 310.368C200.421 311.509 199.714 312.615 199.11 313.773C199.111 313.783 199.109 313.794 199.105 313.803C199.101 313.813 199.094 313.821 199.086 313.827C199.077 313.833 199.067 313.837 199.057 313.838C199.046 313.839 199.036 313.837 199.026 313.833C199.017 313.829 199.008 313.822 199.002 313.813C198.996 313.805 198.993 313.795 198.992 313.784C198.991 313.774 198.992 313.763 198.997 313.754C199.001 313.744 199.008 313.736 199.016 313.73Z" fill="#263238"/>
<path d="M273.966 179.739L269.276 205.128C269.055 205.877 269.463 206.455 270.187 206.404L283.081 205.553C283.472 205.496 283.839 205.33 284.14 205.074C284.441 204.819 284.664 204.483 284.783 204.106L289.473 178.717C289.694 177.968 289.286 177.398 288.562 177.441L275.676 178.292C275.284 178.348 274.916 178.514 274.613 178.77C274.311 179.025 274.086 179.361 273.966 179.739Z" fill="#37474F"/>
<path d="M275.498 179.628L270.808 205.017C270.587 205.766 270.996 206.345 271.711 206.294L284.605 205.443C284.996 205.387 285.364 205.221 285.665 204.965C285.966 204.709 286.189 204.373 286.307 203.996L291.005 178.607C291.227 177.858 290.818 177.279 290.095 177.33L277.2 178.181C276.81 178.239 276.443 178.405 276.142 178.661C275.841 178.917 275.618 179.252 275.498 179.628Z" fill="#455A64"/>
<path d="M279.107 180.539C279.117 180.756 279.062 180.971 278.949 181.157C278.837 181.343 278.671 181.492 278.474 181.584C278.277 181.676 278.058 181.707 277.843 181.674C277.628 181.641 277.428 181.545 277.267 181.398C277.107 181.251 276.994 181.06 276.943 180.848C276.892 180.637 276.904 180.415 276.979 180.211C277.054 180.007 277.188 179.83 277.363 179.702C277.539 179.574 277.749 179.501 277.966 179.492C278.256 179.48 278.539 179.584 278.752 179.78C278.966 179.976 279.093 180.249 279.107 180.539Z" fill="#263238"/>
<path d="M234.831 220.243C242.993 235.385 260.501 254.671 267.293 254.382C270.518 254.245 276.323 254.697 280.349 250.756C289.141 242.16 296.009 226.252 297.099 217.307C297.482 214.132 281.779 208.149 279.659 210.839C274.689 217.145 269.182 229.274 268.237 229.257C264.748 229.18 250.551 218.626 240.636 211.196C228.601 202.166 231.58 214.209 234.831 220.243Z" fill="#EB9481"/>
<path d="M296.571 201.008C294.597 194.701 293.124 193.348 294.282 187.178C295.039 183.101 292.767 180.871 290.094 184.25C285.728 189.782 286.571 198.455 287.728 201.383L296.571 201.008Z" fill="#EB9481"/>
<path d="M296.503 220.099C296.503 220.099 298.861 211.026 297.422 204.098C296.426 199.306 293.099 189.118 279.268 184.411C275.983 183.296 270.518 184.037 275.217 187.816C278.553 190.497 281.472 191.22 283.132 193.101C283.132 193.101 276.323 194.855 275.302 198.208C274.434 201.113 273.777 204.077 273.336 207.077C273.866 207.282 274.409 207.453 274.961 207.587C274.961 207.587 274.11 210.736 276.664 214.992L296.503 220.099Z" fill="#EB9481"/>
<path d="M295.737 199.672C293.695 198.123 289.303 194.914 284.801 193.535C279.796 192.012 269.753 190.412 268.629 194.114C267.829 196.838 271.608 197.782 271.608 197.782C271.608 197.782 267.353 197.995 267.131 200.608C266.961 202.991 269.932 203.545 269.932 203.545C269.932 203.545 267.378 204.123 267.634 206.447C267.966 209.238 273.319 207.57 276.145 210.107C276.766 210.677 295.737 199.672 295.737 199.672Z" fill="#EB9481"/>
<path d="M284.068 199.093C280.195 197.396 275.897 196.915 271.744 197.714C271.642 197.714 271.608 197.834 271.702 197.825C275.865 197.764 280.021 198.21 284.077 199.153L284.068 199.093Z" fill="#263238"/>
<path d="M282.375 204.098C280.409 203.306 274.604 202.191 269.974 203.451C269.864 203.451 269.838 203.57 269.974 203.562C274.125 203.286 278.294 203.483 282.4 204.149L282.375 204.098Z" fill="#263238"/>
<path d="M297.601 223.793C297.601 223.793 286.392 249.284 279.251 252.552C272.11 255.82 267.702 255.429 264.97 255.165C263.907 254.977 262.899 254.558 262.016 253.939C254.356 249.088 240.177 231.223 234.253 221.069C229.81 213.409 229.87 206.302 236.074 208.26C238.18 209.026 240.145 210.136 241.887 211.545C253.582 220.303 267.055 228.516 267.659 228.159C268.263 227.801 274.128 217.265 274.128 217.265L297.601 223.793Z" fill="#0DA8EF"/>
<path d="M268.68 233.461C268.601 234.026 268.601 234.599 268.68 235.163C268.764 235.753 268.936 236.327 269.191 236.866C269.275 236.301 269.275 235.728 269.191 235.163C269.108 234.573 268.935 234 268.68 233.461Z" fill="white"/>
<path d="M283.311 239.802C283.232 240.367 283.232 240.94 283.311 241.504C283.389 242.073 283.544 242.628 283.771 243.156C283.855 242.591 283.855 242.018 283.771 241.453C283.7 240.883 283.545 240.327 283.311 239.802Z" fill="white"/>
<path d="M257.523 245.956C257.443 246.52 257.443 247.093 257.523 247.658C257.593 248.228 257.747 248.785 257.982 249.309C258.061 248.744 258.061 248.171 257.982 247.607C257.903 247.038 257.748 246.483 257.523 245.956Z" fill="white"/>
<path d="M250.467 220.916C250.322 222.073 250.487 223.247 250.943 224.32C251.023 223.756 251.023 223.183 250.943 222.618C250.864 222.031 250.704 221.458 250.467 220.916Z" fill="white"/>
<path d="M248.151 231.172C248.716 231.251 249.289 231.251 249.853 231.172C250.424 231.102 250.98 230.947 251.505 230.712C250.94 230.633 250.367 230.633 249.802 230.712C249.234 230.791 248.679 230.946 248.151 231.172Z" fill="white"/>
<path d="M278.009 234.142C278.573 234.222 279.146 234.222 279.711 234.142C280.279 234.064 280.835 233.909 281.362 233.683C280.798 233.598 280.224 233.598 279.66 233.683C279.09 233.753 278.533 233.908 278.009 234.142Z" fill="white"/>
<path d="M262.842 243.096C263.406 243.175 263.979 243.175 264.544 243.096C265.114 243.026 265.671 242.871 266.195 242.636C265.038 242.499 263.864 242.667 262.791 243.121L262.842 243.096Z" fill="white"/>
<path d="M291.686 225.35C292.251 225.43 292.824 225.43 293.388 225.35C293.959 225.28 294.515 225.125 295.04 224.891C293.882 224.754 292.708 224.921 291.635 225.376L291.686 225.35Z" fill="white"/>
<path d="M276.911 251.445C277.476 251.525 278.049 251.525 278.613 251.445C279.183 251.375 279.74 251.22 280.264 250.986C279.7 250.901 279.126 250.901 278.562 250.986C277.992 251.057 277.436 251.211 276.911 251.445Z" fill="white"/>
<path d="M233.027 209.102C232.557 209.31 232.062 209.453 231.554 209.528C231.627 209.364 231.718 209.21 231.827 209.068C232.227 209.029 232.63 209.04 233.027 209.102Z" fill="white"/>
<path d="M261.404 227.24C260.949 227.591 260.546 228.004 260.204 228.465C259.851 228.922 259.564 229.426 259.352 229.963C260.261 229.251 260.966 228.311 261.395 227.24H261.404Z" fill="white"/>
<path d="M275.438 241.487C274.982 241.84 274.578 242.255 274.238 242.721C273.887 243.176 273.601 243.678 273.387 244.211C273.843 243.861 274.247 243.449 274.587 242.985C274.94 242.529 275.227 242.024 275.438 241.487Z" fill="white"/>
<path d="M283.413 222.601C282.957 222.951 282.553 223.363 282.213 223.827C281.86 224.283 281.574 224.788 281.362 225.325C281.818 224.972 282.222 224.556 282.562 224.09C282.913 223.635 283.199 223.134 283.413 222.601Z" fill="white"/>
<path d="M252.543 239.708C252.089 240.063 251.685 240.478 251.343 240.943C250.992 241.397 250.706 241.899 250.492 242.432C250.948 242.082 251.352 241.67 251.692 241.206C252.048 240.752 252.335 240.247 252.543 239.708Z" fill="white"/>
<path d="M241.955 215.741C241.499 216.091 241.095 216.503 240.755 216.967C240.399 217.421 240.112 217.926 239.904 218.465C240.813 217.752 241.517 216.813 241.947 215.741H241.955Z" fill="white"/>
<path d="M241.3 227.503C240.947 227.047 240.532 226.643 240.066 226.303C239.613 225.949 239.111 225.663 238.576 225.452C238.921 225.912 239.335 226.317 239.802 226.652C240.257 227.008 240.762 227.295 241.3 227.503Z" fill="white"/>
<path d="M290.895 233.07C290.543 232.616 290.131 232.212 289.669 231.87C289.212 231.517 288.708 231.23 288.171 231.019C288.523 231.473 288.935 231.876 289.397 232.219C289.853 232.571 290.358 232.858 290.895 233.07Z" fill="white"/>
<path d="M275.634 228.482C275.282 228.028 274.87 227.624 274.408 227.282C273.954 226.926 273.449 226.639 272.91 226.431C273.623 227.34 274.562 228.044 275.634 228.474V228.482Z" fill="white"/>
<path d="M258.824 237.896C258.477 237.437 258.064 237.033 257.599 236.695C257.146 236.336 256.641 236.049 256.101 235.844C256.456 236.299 256.871 236.702 257.335 237.044C257.79 237.395 258.291 237.682 258.824 237.896Z" fill="white"/>
<path d="M268.935 251.931C268.586 251.474 268.173 251.07 267.71 250.731C267.253 250.378 266.749 250.091 266.212 249.879C266.565 250.336 266.98 250.74 267.446 251.079C267.901 251.43 268.402 251.717 268.935 251.931Z" fill="white"/>
<path d="M262.016 253.939C254.356 249.088 240.177 231.223 234.253 221.069C229.81 213.409 229.87 206.302 236.074 208.26C239.521 214.26 254.569 240.509 262.016 253.939Z" fill="#263238"/>
<path d="M294.724 228.482C293.873 228.065 285.822 225.427 284.06 224.89C282.298 224.354 275.132 222.107 273.268 221.707C273.26 221.705 273.252 221.703 273.243 221.704C273.235 221.704 273.227 221.706 273.219 221.71C273.212 221.713 273.205 221.718 273.199 221.724C273.194 221.731 273.19 221.738 273.187 221.746C273.184 221.753 273.183 221.762 273.183 221.77C273.184 221.778 273.186 221.786 273.189 221.794C273.193 221.801 273.198 221.808 273.204 221.814C273.21 221.819 273.217 221.824 273.225 221.826C274.978 222.567 282.204 224.865 283.992 225.444C285.779 226.022 293.788 228.457 294.699 228.601C294.792 228.61 294.801 228.508 294.724 228.482Z" fill="#263238"/>
<path d="M253.913 270.766C253.105 271.617 201.042 273.319 200.778 272.996C200.055 272.145 206.464 239.002 211.792 226.32C218.601 210.064 222.516 208.566 224.848 207.596C227.818 206.336 233.257 206.575 234.576 207.111C236.074 207.707 242.611 214.898 244.602 220.729C248.602 232.457 254.62 269.991 253.913 270.766Z" fill="#0DA8EF"/>
<path d="M230.984 216.899C230.847 218.056 231.015 219.23 231.469 220.303C231.55 219.738 231.55 219.165 231.469 218.601C231.395 218.012 231.232 217.438 230.984 216.899Z" fill="white"/>
<path d="M231.427 241.751C231.283 242.908 231.448 244.083 231.904 245.156C231.983 244.591 231.983 244.018 231.904 243.453C231.825 242.867 231.665 242.294 231.427 241.751Z" fill="white"/>
<path d="M201.825 267.744C201.691 268.902 201.858 270.075 202.311 271.149C202.39 270.584 202.39 270.011 202.311 269.446C202.235 268.858 202.072 268.284 201.825 267.744Z" fill="white"/>
<path d="M223.154 268.774C223.074 269.339 223.074 269.912 223.154 270.476C223.231 271.049 223.389 271.608 223.622 272.136C223.702 271.571 223.702 270.998 223.622 270.434C223.55 269.86 223.392 269.301 223.154 268.774Z" fill="white"/>
<path d="M240.712 257.292C240.633 257.857 240.633 258.43 240.712 258.995C240.782 259.565 240.937 260.121 241.172 260.646C241.252 260.081 241.252 259.508 241.172 258.944C241.097 258.374 240.942 257.819 240.712 257.292Z" fill="white"/>
<path d="M215.673 231.759C215.593 232.324 215.593 232.897 215.673 233.461C215.743 234.031 215.898 234.588 216.132 235.112C216.217 234.548 216.217 233.974 216.132 233.41C216.062 232.84 215.907 232.284 215.673 231.759Z" fill="white"/>
<path d="M213.154 253.65C213.074 254.214 213.074 254.787 213.154 255.352C213.232 255.921 213.386 256.476 213.613 257.003C213.759 255.846 213.594 254.671 213.137 253.599L213.154 253.65Z" fill="white"/>
<path d="M244.432 236.304C244.352 236.869 244.352 237.442 244.432 238.006C244.51 238.575 244.665 239.13 244.891 239.657C244.976 239.093 244.976 238.519 244.891 237.955C244.821 237.385 244.666 236.829 244.432 236.304Z" fill="white"/>
<path d="M225.946 227.41C226.51 227.49 227.083 227.49 227.648 227.41C228.221 227.34 228.78 227.185 229.308 226.95C228.15 226.802 226.973 226.969 225.903 227.435L225.946 227.41Z" fill="white"/>
<path d="M213.392 243.802C214.55 243.939 215.723 243.772 216.796 243.317C216.232 243.237 215.659 243.237 215.094 243.317C214.505 243.391 213.931 243.555 213.392 243.802Z" fill="white"/>
<path d="M233.265 253.096C233.83 253.176 234.403 253.176 234.968 253.096C235.537 253.022 236.093 252.868 236.619 252.637C236.054 252.558 235.481 252.558 234.916 252.637C234.348 252.715 233.792 252.87 233.265 253.096Z" fill="white"/>
<path d="M218.516 263.633C219.08 263.713 219.653 263.713 220.218 263.633C220.786 263.555 221.342 263.401 221.869 263.174C221.304 263.094 220.731 263.094 220.167 263.174C219.598 263.253 219.043 263.407 218.516 263.633Z" fill="white"/>
<path d="M247.598 263.344C248.163 263.423 248.736 263.423 249.3 263.344C249.871 263.274 250.427 263.119 250.952 262.884C250.387 262.8 249.814 262.8 249.249 262.884C248.679 262.955 248.123 263.11 247.598 263.344Z" fill="white"/>
<path d="M229.657 209.579C230.221 209.659 230.794 209.659 231.359 209.579C231.93 209.501 232.488 209.346 233.018 209.119C232.454 209.04 231.881 209.04 231.316 209.119C230.744 209.193 230.185 209.347 229.657 209.579Z" fill="white"/>
<path d="M224.422 213.962C223.961 214.313 223.554 214.728 223.213 215.196C222.861 215.65 222.574 216.152 222.362 216.686C222.821 216.339 223.225 215.926 223.562 215.46C223.918 215.004 224.207 214.499 224.422 213.962Z" fill="white"/>
<path d="M236.559 232.542C235.651 233.257 234.945 234.196 234.508 235.266C234.968 234.918 235.373 234.501 235.708 234.031C236.062 233.579 236.349 233.077 236.559 232.542Z" fill="white"/>
<path d="M248.62 251.198C248.165 251.553 247.761 251.969 247.419 252.433C247.067 252.889 246.78 253.394 246.568 253.931C247.025 253.578 247.429 253.163 247.768 252.696C248.124 252.242 248.411 251.737 248.62 251.198Z" fill="white"/>
<path d="M235.206 265.387C234.75 265.736 234.346 266.149 234.006 266.612C233.65 267.067 233.363 267.572 233.155 268.11C233.615 267.765 234.02 267.352 234.355 266.885C234.71 266.43 234.997 265.925 235.206 265.387Z" fill="white"/>
<path d="M207.434 260.961C206.976 261.311 206.571 261.727 206.234 262.195C205.88 262.648 205.593 263.149 205.383 263.684C205.843 263.339 206.248 262.926 206.583 262.459C206.939 262.004 207.225 261.499 207.434 260.961Z" fill="white"/>
<path d="M223.392 247.794C222.938 248.146 222.535 248.558 222.192 249.02C221.84 249.476 221.553 249.981 221.341 250.518C221.795 250.166 222.199 249.753 222.541 249.292C222.896 248.836 223.182 248.332 223.392 247.794Z" fill="white"/>
<path d="M241.955 215.741C241.499 216.091 241.095 216.503 240.755 216.967C240.399 217.421 240.112 217.926 239.904 218.465C240.813 217.752 241.517 216.813 241.947 215.741H241.955Z" fill="white"/>
<path d="M241.3 227.503C240.947 227.047 240.532 226.643 240.066 226.303C239.613 225.949 239.111 225.663 238.576 225.452C238.921 225.912 239.335 226.317 239.802 226.652C240.257 227.008 240.762 227.295 241.3 227.503Z" fill="white"/>
<path d="M207.111 247.641C206.599 247.443 206.118 247.173 205.681 246.841L205.783 246.373L205.877 246.441C206.343 246.78 206.758 247.185 207.111 247.641Z" fill="white"/>
<path d="M243.045 247.241C242.695 246.785 242.282 246.381 241.819 246.041C241.362 245.688 240.858 245.401 240.321 245.19C240.674 245.646 241.089 246.05 241.555 246.39C242.01 246.741 242.511 247.027 243.045 247.241Z" fill="white"/>
<path d="M245.036 271.481C244.681 271.026 244.266 270.623 243.802 270.281C243.347 269.925 242.843 269.638 242.304 269.429C242.659 269.884 243.074 270.288 243.538 270.63C243.995 270.982 244.499 271.269 245.036 271.481Z" fill="white"/>
<path d="M218.515 223.622C218.163 223.156 217.744 222.743 217.273 222.397C216.818 222.041 216.313 221.754 215.775 221.546C216.122 222.004 216.535 222.408 217.001 222.746C217.46 223.11 217.971 223.405 218.515 223.622Z" fill="white"/>
<path d="M228.993 258.995C228.64 258.538 228.225 258.134 227.759 257.795C227.304 257.444 226.803 257.157 226.269 256.943C226.616 257.399 227.026 257.803 227.487 258.144C227.946 258.497 228.453 258.784 228.993 258.995Z" fill="white"/>
<path d="M213.783 270.459C213.434 270.003 213.021 269.599 212.558 269.259C212.103 268.904 211.598 268.617 211.06 268.408C211.407 268.866 211.82 269.271 212.285 269.608C212.742 269.962 213.246 270.249 213.783 270.459Z" fill="white"/>
<path d="M225.878 237.232C225.526 236.778 225.114 236.374 224.652 236.032C224.198 235.676 223.693 235.389 223.154 235.181C223.506 235.635 223.918 236.038 224.38 236.381C224.837 236.733 225.341 237.02 225.878 237.232Z" fill="white"/>
<path d="M216.26 212.047C193.97 229.138 174.777 252.739 176.709 260.135C178.752 267.949 194.361 276.579 208.081 278.239C210.89 278.579 219.384 257.914 216.499 256.961C214.252 256.246 204.038 253.446 202.804 252.058C201.953 251.096 217.546 228.704 222.576 217.043C227.844 204.881 222.227 207.477 216.26 212.047Z" fill="#EB9481"/>
<path d="M210.702 256.441C210.702 256.441 219.282 257.216 224.865 257.99C227.98 258.425 233.257 259.642 235.402 261.003C238.602 263.046 250.722 273.634 248.211 276.621C245.947 279.328 242.449 275.106 242.449 275.106C242.449 275.106 246.705 279.362 243.632 281.354C240.56 283.345 236.508 277.43 236.508 277.43C236.508 277.43 241.343 281.626 237.862 283.447C234.832 285.022 229.461 278.69 229.461 278.69C229.461 278.69 235.019 282.537 232.074 284.46C228.831 286.579 219.58 278.094 219.58 278.094C212.251 278.945 207.732 278.528 202.557 277.124C201.604 276.868 210.702 256.441 210.702 256.441Z" fill="#EB9481"/>
<path d="M237.81 278.834C237.478 278.383 237.129 277.941 236.789 277.489C236.154 276.594 235.46 275.741 234.712 274.936C233.98 274.153 233.214 273.413 232.414 272.698C231.614 271.983 230.661 271.259 229.861 270.476C229.855 270.471 229.848 270.466 229.84 270.464C229.832 270.461 229.824 270.46 229.815 270.46C229.807 270.46 229.799 270.462 229.791 270.466C229.784 270.469 229.777 270.474 229.772 270.481C229.766 270.487 229.762 270.494 229.759 270.502C229.756 270.51 229.755 270.518 229.755 270.526C229.756 270.534 229.758 270.543 229.761 270.55C229.765 270.558 229.77 270.564 229.776 270.57C230.595 271.332 231.368 272.142 232.091 272.996C232.831 273.804 233.555 274.621 234.287 275.438C235.019 276.255 235.759 276.979 236.491 277.762C236.857 278.145 237.206 278.553 237.555 278.953C237.861 279.358 238.199 279.737 238.568 280.085C238.61 280.085 238.653 280.085 238.636 280.026C238.403 279.601 238.126 279.202 237.81 278.834Z" fill="#263238"/>
<path d="M243.317 276.017C242.182 274.327 240.93 272.717 239.572 271.2C238.19 269.693 236.662 268.328 235.01 267.123C235.004 267.117 234.997 267.113 234.989 267.11C234.981 267.107 234.973 267.106 234.965 267.107C234.956 267.107 234.948 267.109 234.941 267.112C234.933 267.116 234.926 267.121 234.921 267.127C234.915 267.133 234.911 267.14 234.908 267.148C234.905 267.156 234.904 267.164 234.904 267.173C234.905 267.181 234.907 267.189 234.91 267.197C234.914 267.204 234.919 267.211 234.925 267.217C236.304 268.723 237.708 270.212 239.104 271.71C239.785 272.434 242.789 275.847 243.155 276.162C243.24 276.213 243.36 276.085 243.317 276.017Z" fill="#263238"/>
<path d="M232.703 281.634C231.603 280.068 230.4 278.575 229.103 277.166C227.646 275.852 226.096 274.646 224.465 273.557C224.405 273.557 224.328 273.608 224.38 273.651C225.826 274.97 227.299 276.255 228.635 277.634C229.316 278.315 231.844 281.158 232.542 281.745C232.556 281.767 232.579 281.781 232.605 281.786C232.63 281.791 232.656 281.785 232.678 281.771C232.699 281.756 232.714 281.733 232.719 281.708C232.724 281.682 232.718 281.656 232.703 281.634Z" fill="#263238"/>
<path d="M217.435 256.135L205.434 279.072C205.434 279.072 178.394 271.932 176.062 259.684C173.73 247.437 204.71 219.282 214.268 212.626C223.827 205.97 229.657 205.076 222.116 220.235C214.575 235.393 202.906 250.986 203.859 251.769C204.668 252.424 217.435 256.135 217.435 256.135Z" fill="#0DA8EF"/>
<path d="M198.403 239.419C198.324 239.984 198.324 240.557 198.403 241.121C198.475 241.694 198.629 242.253 198.863 242.781C198.942 242.216 198.942 241.643 198.863 241.079C198.784 240.508 198.629 239.95 198.403 239.419Z" fill="white"/>
<path d="M201.825 267.744C201.691 268.902 201.858 270.075 202.311 271.149C202.39 270.584 202.39 270.011 202.311 269.446C202.235 268.858 202.072 268.284 201.825 267.744Z" fill="white"/>
<path d="M187.867 253.939C187.787 254.504 187.787 255.077 187.867 255.641C187.941 256.212 188.098 256.768 188.335 257.292C188.419 256.728 188.419 256.155 188.335 255.59C188.26 255.02 188.103 254.464 187.867 253.939Z" fill="white"/>
<path d="M215.707 231.853L215.656 231.938C215.652 231.881 215.652 231.824 215.656 231.768C215.677 231.794 215.694 231.822 215.707 231.853Z" fill="white"/>
<path d="M209.221 216.779C209.084 217.937 209.251 219.111 209.706 220.184C209.786 219.619 209.786 219.046 209.706 218.482C209.633 217.893 209.47 217.318 209.221 216.779Z" fill="white"/>
<path d="M213.63 257.02C213.403 256.493 213.249 255.938 213.171 255.369C213.171 255.199 213.154 255.028 213.119 254.858L213.554 254.986C213.554 255.088 213.596 255.199 213.613 255.301C213.7 255.87 213.705 256.449 213.63 257.02Z" fill="white"/>
<path d="M215.316 211.979C215.88 212.059 216.453 212.059 217.018 211.979C217.604 211.905 218.177 211.75 218.72 211.519C217.563 211.374 216.388 211.538 215.316 211.996V211.979Z" fill="white"/>
<path d="M187.169 241.019C187.733 241.098 188.306 241.098 188.871 241.019C189.441 240.949 189.998 240.794 190.522 240.56C189.958 240.48 189.385 240.48 188.82 240.56C188.251 240.638 187.696 240.792 187.169 241.019Z" fill="white"/>
<path d="M199.068 255.59C199.632 255.671 200.205 255.671 200.77 255.59C201.343 255.52 201.902 255.365 202.429 255.131C201.865 255.051 201.292 255.051 200.727 255.131C200.156 255.208 199.597 255.363 199.068 255.59Z" fill="white"/>
<path d="M192.003 272.34C192.568 272.42 193.141 272.42 193.705 272.34C194.278 272.27 194.838 272.115 195.365 271.881C194.207 271.744 193.034 271.911 191.961 272.366L192.003 272.34Z" fill="white"/>
<path d="M179.092 260.697C179.657 260.776 180.23 260.776 180.794 260.697C181.365 260.627 181.921 260.472 182.445 260.237C181.288 260.101 180.114 260.268 179.041 260.723L179.092 260.697Z" fill="white"/>
<path d="M204.063 226.286C204.628 226.367 205.201 226.367 205.766 226.286C206.339 226.216 206.898 226.061 207.425 225.827C206.268 225.69 205.094 225.857 204.021 226.312L204.063 226.286Z" fill="white"/>
<path d="M224.422 213.962C223.961 214.313 223.554 214.728 223.213 215.196C222.861 215.65 222.574 216.152 222.362 216.686C222.821 216.339 223.225 215.926 223.562 215.46C223.918 215.004 224.207 214.499 224.422 213.962Z" fill="white"/>
<path d="M207.434 233.776C206.976 234.126 206.571 234.542 206.234 235.01C205.88 235.463 205.593 235.965 205.383 236.5C205.843 236.155 206.248 235.741 206.583 235.274C206.939 234.819 207.225 234.314 207.434 233.776Z" fill="white"/>
<path d="M207.434 260.961C206.976 261.311 206.571 261.727 206.234 262.195C205.88 262.648 205.593 263.149 205.383 263.684C205.843 263.339 206.248 262.926 206.583 262.459C206.939 262.004 207.225 261.499 207.434 260.961Z" fill="white"/>
<path d="M189.722 264.629C188.814 265.344 188.108 266.283 187.671 267.353C188.131 267.005 188.536 266.588 188.871 266.118C189.225 265.666 189.512 265.164 189.722 264.629Z" fill="white"/>
<path d="M194.046 247.241C193.592 247.593 193.188 248.005 192.846 248.466C192.492 248.922 192.205 249.427 191.995 249.964C192.451 249.615 192.855 249.202 193.195 248.739C193.548 248.282 193.834 247.778 194.046 247.241Z" fill="white"/>
<path d="M206.404 275.268C205.5 275.985 204.797 276.923 204.361 277.992C205.27 277.279 205.975 276.34 206.404 275.268Z" fill="white"/>
<path d="M206.353 246.832L206.157 247.156C205.97 247.045 205.791 246.917 205.613 246.79C205.149 246.45 204.737 246.046 204.387 245.59C204.92 245.803 205.422 246.09 205.877 246.441C206.038 246.569 206.208 246.696 206.353 246.832Z" fill="white"/>
<path d="M182.956 250.986C182.604 250.532 182.192 250.128 181.73 249.786C181.274 249.433 180.769 249.146 180.233 248.934C180.582 249.391 180.995 249.795 181.458 250.135C181.915 250.487 182.419 250.774 182.956 250.986Z" fill="white"/>
<path d="M197.697 263.829C197.348 263.373 196.935 262.969 196.472 262.629C196.015 262.276 195.511 261.99 194.974 261.778C195.326 262.234 195.742 262.638 196.208 262.978C196.663 263.329 197.164 263.615 197.697 263.829Z" fill="white"/>
<path d="M218.515 223.622C218.163 223.156 217.744 222.743 217.273 222.397C216.818 222.041 216.313 221.754 215.775 221.546C216.122 222.004 216.535 222.408 217.001 222.746C217.46 223.11 217.971 223.405 218.515 223.622Z" fill="white"/>
<path d="M198.319 233.07C197.602 232.166 196.664 231.462 195.595 231.027C195.945 231.483 196.357 231.887 196.821 232.227C197.278 232.577 197.782 232.861 198.319 233.07Z" fill="white"/>
<path d="M201.604 275.889C202.174 275.132 206.319 267.753 207.187 266.127C208.055 264.501 211.664 257.905 212.413 256.16C212.416 256.146 212.415 256.132 212.41 256.118C212.404 256.105 212.395 256.093 212.383 256.086C212.37 256.078 212.356 256.075 212.341 256.076C212.327 256.077 212.313 256.083 212.302 256.092C211.238 257.667 207.579 264.314 206.659 265.948C205.74 267.582 201.808 274.97 201.485 275.838C201.459 275.915 201.561 275.94 201.604 275.889Z" fill="#263238"/>
<path d="M217.579 256.058L217.018 256.995C217.018 256.995 216.941 257.097 217.018 256.995C217.094 256.892 217.401 256.195 217.401 256.195C213.741 255.343 210.098 254.433 206.498 253.318C206.047 253.173 205.596 253.028 205.145 252.858C204.661 252.695 204.198 252.475 203.766 252.203C203.729 252.174 203.695 252.143 203.664 252.109C203.61 252.045 203.567 251.974 203.536 251.896C203.504 251.765 203.504 251.628 203.536 251.496C203.579 251.377 203.63 251.241 203.681 251.13C203.732 251.02 203.885 250.688 203.987 250.475C204.2 250.049 204.43 249.624 204.651 249.215C205.553 247.513 206.489 245.913 207.451 244.287C209.4 241.053 211.341 237.819 213.358 234.644C215.264 231.631 217.248 228.227 219.248 225.282C219.367 225.103 219.673 224.942 219.307 225.588C217.469 228.882 215.809 231.725 213.911 234.951L208.175 244.687C207.221 246.313 206.251 247.922 205.34 249.564C205.111 249.973 204.881 250.415 204.668 250.798C204.557 251.003 204.464 251.207 204.362 251.411L204.277 251.641L204.217 251.599C204.222 251.618 204.222 251.639 204.217 251.658C204.217 251.658 204.217 251.735 204.217 251.709V251.65C204.572 251.851 204.942 252.024 205.323 252.169L206.634 252.654C208.396 253.292 210.192 253.862 211.996 254.416L217.579 256.058Z" fill="#263238"/>
<path d="M204.277 251.649V251.708C204.277 251.708 204.277 251.666 204.277 251.658C204.282 251.638 204.282 251.618 204.277 251.599V251.649Z" fill="#263238"/>
<path d="M218.745 229.546C219.001 229.35 218.975 229.546 218.856 229.657C218.201 230.508 217.196 231.402 216.464 232.151C215.606 233.041 214.691 233.874 213.724 234.644C214.478 233.663 215.294 232.731 216.166 231.853C216.971 231.024 217.833 230.254 218.745 229.546Z" fill="#263238"/>
<path d="M233.444 216.133C230.516 216.984 225.239 212.728 223.069 209.128C222.916 208.881 223.18 206.217 223.341 202.966C223.435 201 223.495 198.795 223.401 196.787C223.401 196.378 236.168 199.263 236.168 199.263C235.566 201.812 235.28 204.424 235.317 207.043C235.331 207.329 235.371 207.614 235.436 207.894C235.436 207.894 235.436 207.979 235.436 208.03C235.776 209.553 236.27 215.324 233.444 216.133Z" fill="#EB9481"/>
<path d="M224.184 196.804C224.925 200.208 227.427 208.285 234.159 208.124C234.59 208.119 235.02 208.076 235.444 207.996C235.45 207.951 235.45 207.905 235.444 207.86C235.382 207.579 235.339 207.295 235.317 207.009C235.283 204.391 235.569 201.778 236.168 199.229C236.168 199.229 226.942 197.178 224.184 196.804Z" fill="#263238"/>
<path d="M239.121 176.683C239.121 176.683 243.224 178.386 243.981 182.539C244.739 186.692 243.794 191.05 243.436 191.28C243.079 191.51 239.121 176.683 239.121 176.683Z" fill="#263238"/>
<path d="M221.869 181.943C220.677 186.463 223.571 199.289 226.814 202.047C231.589 206.047 239.147 206.157 242.483 200.481C245.717 194.982 241.708 178.352 238.057 175.849C232.678 172.181 223.631 175.262 221.869 181.943Z" fill="#EB9481"/>
<path d="M235.001 190.386C235.001 190.386 234.942 190.446 234.95 190.48C235.172 191.331 235.274 192.361 234.55 192.812C234.55 192.812 234.55 192.871 234.55 192.863C235.495 192.523 235.342 191.169 235.001 190.386Z" fill="#263238"/>
<path d="M234.031 189.654C232.619 189.85 233.121 192.667 234.431 192.48C235.742 192.293 235.223 189.493 234.031 189.654Z" fill="#263238"/>
<path d="M239.887 189.552C239.887 189.552 239.964 189.552 239.964 189.62C240.091 190.471 240.389 191.476 241.223 191.629V191.68C240.253 191.757 239.862 190.403 239.887 189.552Z" fill="#263238"/>
<path d="M240.5 188.505C241.887 188.148 242.491 190.939 241.215 191.271C239.938 191.603 239.342 188.803 240.5 188.505Z" fill="#263238"/>
<path d="M232.346 187.654C232.722 187.548 233.092 187.42 233.453 187.271C233.863 187.19 234.234 186.974 234.508 186.658C234.573 186.542 234.598 186.409 234.582 186.277C234.565 186.145 234.506 186.022 234.414 185.926C234.199 185.767 233.945 185.669 233.678 185.642C233.411 185.615 233.142 185.66 232.899 185.773C232.374 185.919 231.921 186.256 231.631 186.718C231.573 186.827 231.547 186.952 231.556 187.075C231.566 187.199 231.612 187.318 231.687 187.416C231.763 187.515 231.865 187.59 231.982 187.632C232.099 187.674 232.225 187.682 232.346 187.654Z" fill="#263238"/>
<path d="M241.428 186.224C241.037 186.214 240.648 186.183 240.262 186.131C239.845 186.156 239.432 186.042 239.087 185.807C238.993 185.713 238.932 185.59 238.915 185.457C238.899 185.325 238.926 185.19 238.993 185.075C239.161 184.867 239.381 184.708 239.631 184.614C239.881 184.519 240.152 184.494 240.415 184.539C240.962 184.553 241.485 184.764 241.887 185.135C241.973 185.226 242.03 185.34 242.052 185.463C242.074 185.587 242.06 185.714 242.011 185.829C241.963 185.944 241.882 186.043 241.778 186.113C241.674 186.183 241.553 186.222 241.428 186.224Z" fill="#263238"/>
<path d="M234.976 198.744C235.205 198.969 235.507 199.105 235.827 199.127C236.15 199.059 236.456 198.929 236.729 198.744C236.729 198.744 236.789 198.744 236.772 198.744C236.678 198.938 236.534 199.103 236.354 199.221C236.174 199.34 235.966 199.407 235.751 199.417C235.559 199.407 235.375 199.339 235.223 199.222C235.071 199.105 234.958 198.944 234.9 198.761C234.9 198.761 234.942 198.719 234.976 198.744Z" fill="#263238"/>
<path d="M235.436 196.012C235.717 196.319 236.059 196.564 236.44 196.731C236.821 196.898 237.233 196.984 237.649 196.982C238.011 196.988 238.372 196.942 238.721 196.846L238.925 196.787L239.113 196.727C239.156 196.708 239.193 196.675 239.217 196.634C239.242 196.593 239.253 196.545 239.249 196.497C239.251 196.469 239.251 196.44 239.249 196.412V196.336C239.155 195.663 238.908 194.633 238.908 194.633C239.172 194.718 240.525 195.059 240.44 194.71C239.829 191.685 238.911 188.731 237.7 185.892C237.689 185.878 237.674 185.867 237.657 185.862C237.64 185.857 237.622 185.857 237.605 185.863C237.588 185.868 237.573 185.879 237.563 185.894C237.552 185.908 237.547 185.926 237.547 185.943C238.1 188.727 239.13 191.399 239.734 194.191C239.251 194.06 238.753 194 238.253 194.012C238.168 194.055 238.764 195.953 238.781 196.259C238.241 196.411 237.677 196.453 237.121 196.381C236.565 196.309 236.029 196.126 235.546 195.842C235.427 195.842 235.368 195.91 235.436 196.012Z" fill="#263238"/>
<path d="M238.27 196.531C237.987 197.077 237.568 197.541 237.053 197.876C236.766 198.048 236.433 198.128 236.099 198.106C235.376 198.046 235.248 197.408 235.248 196.838C235.268 196.535 235.323 196.235 235.41 195.944C236.275 196.444 237.278 196.65 238.27 196.531Z" fill="#263238"/>
<path d="M237.053 197.876C236.766 198.048 236.433 198.128 236.099 198.106C235.376 198.046 235.248 197.408 235.248 196.838C235.621 196.787 236.001 196.861 236.328 197.049C236.654 197.237 236.909 197.528 237.053 197.876Z" fill="#FF98B9"/>
<path d="M223.554 194.106C225.069 194.31 226.005 189.705 226.192 187.969C226.363 186.437 226.065 181.705 226.082 181.381C226.099 181.058 233.035 184.445 236.482 182.786C239.929 181.126 241.81 177.466 241.589 175.977C241.368 174.487 236.244 171.347 232.312 171.798C228.38 172.249 223.946 178.071 223.946 178.071C224.458 177.255 224.907 176.401 225.29 175.517C225.197 175.347 222.848 176.777 222.686 178.641C222.686 178.641 222.805 176.309 222.609 176.3C222.413 176.292 220.779 178.547 221.46 179.926C221.46 179.926 219.528 182.267 219.681 184.446C219.835 186.624 221.784 193.867 223.554 194.106Z" fill="#263238"/>
<path d="M238.925 181.594C237.953 182.357 236.868 182.963 235.708 183.39C234.393 183.726 233.014 183.726 231.699 183.39C230.373 183.117 229.102 182.625 227.937 181.935C226.899 181.339 225.946 180.573 224.873 180.071C224.601 179.943 224.38 180.343 224.567 180.539C226.562 182.546 229.149 183.859 231.946 184.284C233.246 184.483 234.575 184.34 235.803 183.87C237.031 183.4 238.116 182.619 238.951 181.603C238.951 181.603 238.942 181.586 238.925 181.594Z" fill="#263238"/>
<path d="M225.027 192.361C225.027 192.361 221.869 188.361 220.039 189.51C218.209 190.659 220.754 196.582 223.018 197.28C223.304 197.389 223.608 197.439 223.914 197.428C224.219 197.416 224.519 197.343 224.796 197.212C225.072 197.082 225.32 196.897 225.523 196.669C225.727 196.441 225.882 196.174 225.98 195.885L225.027 192.361Z" fill="#EB9481"/>
<path d="M220.805 191.186C220.805 191.186 220.805 191.237 220.805 191.246C222.405 191.791 223.307 193.187 223.971 194.65C223.871 194.5 223.74 194.372 223.586 194.277C223.432 194.182 223.259 194.122 223.079 194.1C222.9 194.078 222.718 194.095 222.545 194.151C222.373 194.206 222.215 194.298 222.082 194.421C222.082 194.421 222.082 194.514 222.133 194.497C222.402 194.395 222.696 194.379 222.975 194.45C223.254 194.522 223.504 194.678 223.69 194.897C223.999 195.264 224.268 195.664 224.49 196.089C224.576 196.225 224.822 196.14 224.763 195.978C224.661 193.953 222.95 191.263 220.805 191.186Z" fill="#263238"/>
<path d="M221.529 210.073C222.923 211.772 224.412 213.392 225.989 214.924C227.435 216.424 229.328 217.416 231.385 217.75C233.385 217.928 235.385 217.52 236.117 215.077C236.636 212.975 236.685 210.784 236.262 208.66C236.258 208.648 236.256 208.636 236.258 208.624C236.26 208.612 236.264 208.6 236.271 208.59C236.279 208.58 236.288 208.572 236.299 208.567C236.31 208.561 236.322 208.558 236.334 208.558C236.346 208.558 236.358 208.561 236.369 208.567C236.38 208.572 236.389 208.58 236.396 208.59C236.403 208.6 236.408 208.612 236.41 208.624C236.411 208.636 236.41 208.648 236.406 208.66C236.866 211.851 237.342 216.805 234.44 217.911C231.189 219.154 227.997 217.477 225.708 215.23C224.105 213.69 222.678 211.978 221.452 210.124C221.478 210.081 221.529 210.039 221.529 210.073Z" fill="#263238"/>
</svg>
