<svg width="1057" height="604" viewBox="0 0 1057 604" fill="none" xmlns="http://www.w3.org/2000/svg">
<path d="M678.568 1.54902L535.733 44.5105L564.691 140.787L707.526 97.8259L678.568 1.54902Z" fill="white"/>
<path d="M707.551 97.7325C707.551 97.7325 707.333 97.12 706.978 95.9742C706.622 94.8284 706.089 93.0898 705.397 90.8772C704.034 86.4124 702.019 79.8732 699.47 71.5362C694.373 54.803 687.083 30.7996 678.193 1.58072L678.707 1.8573L535.912 44.9843L536.267 44.3324L565.19 140.622L564.597 140.306L667.486 109.586L696.942 100.874L704.844 98.5622L706.82 97.9695L707.531 97.7917L706.899 98.009L704.923 98.6413L697.179 101.012L667.901 109.961L564.854 141.195L564.4 141.334L564.261 140.879C555.43 111.542 545.592 78.9249 535.26 44.609L535.121 44.1151L535.596 43.9768L678.45 1.10657L678.845 0.988037L678.964 1.38316C687.716 30.7601 694.887 54.882 699.905 71.6943C702.355 80.0312 704.291 86.5507 705.595 91.0352C706.247 93.2084 706.721 94.8876 707.076 96.073C707.432 97.2583 707.551 97.7325 707.551 97.7325Z" fill="#E0E0E0"/>
<path d="M678.588 1.52139C678.536 1.67205 678.47 1.81753 678.391 1.95601L677.719 3.18088C677.067 4.30696 676.178 5.86767 675.072 7.84326L665.095 24.9716L631.629 81.7301L631.392 82.1055L630.996 81.9475L626.63 80.2682L562.286 55.1585L542.826 47.4538L537.571 45.3004L536.208 44.7274C536.045 44.673 535.891 44.593 535.754 44.4904C535.925 44.5053 536.093 44.5522 536.247 44.6287L537.63 45.1028L542.984 47.0784L562.542 54.4868L626.986 79.3002L631.372 80.9992L630.74 81.2165C643.976 58.9912 655.869 39.0773 664.483 24.5962L674.736 7.6457C675.921 5.67012 676.87 4.18843 677.541 3.06235L678.312 1.89674C678.47 1.63992 678.569 1.50164 678.588 1.52139Z" fill="#E0E0E0"/>
<path d="M172.429 560.399C172.429 560.399 172.212 559.787 171.856 558.641C171.501 557.495 170.967 555.756 170.276 553.544C168.913 549.079 166.897 542.54 164.349 534.203C159.252 517.47 151.962 493.466 143.072 464.247L143.586 464.524L0.790192 507.651L1.14581 506.999L30.0684 603.289L29.4757 602.973L132.364 572.252L161.82 563.54L169.723 561.229L171.698 560.636L172.409 560.458L171.777 560.676L169.802 561.308L162.057 563.678L132.779 572.628L29.7325 603.862L29.2782 604L29.1399 603.546C20.309 574.208 10.4706 541.591 0.138275 507.275L-3.05176e-05 506.782L0.474121 506.643L143.329 463.773L143.724 463.655L143.842 464.05C152.594 493.427 159.766 517.549 164.784 534.361C167.233 542.698 169.169 549.217 170.473 553.702C171.125 555.875 171.599 557.554 171.955 558.739C172.311 559.925 172.429 560.399 172.429 560.399Z" fill="#E0E0E0"/>
<path d="M143.467 464.188C143.415 464.339 143.348 464.484 143.269 464.623L142.598 465.847C141.946 466.973 141.057 468.534 139.95 470.51L129.974 487.638L96.5072 544.397L96.2701 544.772L95.875 544.614L91.509 542.935L27.1642 517.825L7.70465 510.12L2.44962 507.967L1.08646 507.394C0.923375 507.34 0.770003 507.26 0.63208 507.157C0.803895 507.172 0.971408 507.219 1.12598 507.295L2.50888 507.769L7.8627 509.745L27.421 517.153L91.8646 541.967L96.2504 543.666L95.6182 543.883C108.855 521.658 120.748 501.744 129.361 487.263L139.615 470.312C140.8 468.337 141.748 466.855 142.42 465.729L143.19 464.563C143.348 464.306 143.447 464.168 143.467 464.188Z" fill="#E0E0E0"/>
<path d="M1094.21 386.168C1094.21 386.168 1084.95 377.001 1066.89 399.898C1057.42 411.489 1048.73 423.692 1040.87 436.427C1040.87 436.427 1036.37 441.089 1033.4 436.861C1030.44 432.634 1027.38 421.728 1020.78 422.282C1014.18 422.835 1010.39 429.631 1009.5 440.477C1008.61 451.323 1005.82 475.05 1005.55 477.183C1005.27 479.317 1003.57 482.102 1001.02 479.554C998.475 477.005 985.654 455.313 975.677 461.991C965.7 468.668 968.229 499.369 968.446 502.708C968.663 506.046 967.755 507.311 966.095 507.785C964.436 508.259 960.781 500.554 956.85 494.529C952.918 488.503 947.327 482.162 941.914 486.528C936.501 490.894 930.752 512.368 944.423 551.821L951.95 569.601L971.212 572.347C1012.84 575.686 1032.2 564.761 1035.06 558.419C1037.93 552.078 1030.42 548.245 1023.58 545.953C1016.75 543.662 1008.37 542.002 1008.43 540.323C1008.49 538.644 1009.46 537.419 1012.76 536.787C1016.06 536.154 1046.34 530.86 1050.29 519.579C1054.25 508.299 1030.04 501.226 1026.94 499.448C1023.84 497.67 1026.13 495.24 1028.11 494.47C1030.08 493.699 1052.37 485.026 1062.66 481.47C1072.95 477.914 1078.62 472.738 1077.46 465.982C1076.29 459.225 1065.01 459.245 1060.17 457.408C1055.33 455.57 1058.73 450.078 1058.73 450.078C1069.14 439.306 1078.82 427.855 1087.71 415.802C1105.35 392.569 1093.86 385.793 1093.86 385.793" fill="#EBEBEB"/>
<path d="M1077.93 406.556C1077.84 406.731 1077.74 406.896 1077.62 407.05L1076.61 408.472C1075.66 409.737 1074.34 411.534 1072.66 413.826C1069.2 418.469 1064.16 425.146 1057.88 433.365C1045.34 449.802 1027.79 472.363 1008.31 497.176L958.49 560.81L943.455 580.151L939.346 585.386L938.26 586.729C938.003 587.026 937.884 587.184 937.864 587.164C937.953 586.989 938.059 586.824 938.18 586.67L939.188 585.267L943.139 579.894C946.577 575.251 951.634 568.574 957.897 560.355C970.442 543.918 988.005 521.357 1007.5 496.544C1027 471.731 1044.53 449.248 1057.31 432.91C1063.61 424.791 1068.75 418.212 1072.34 413.589C1074.08 411.357 1075.46 409.638 1076.43 408.334L1077.54 406.991C1077.78 406.694 1077.91 406.536 1077.93 406.556Z" fill="#E0E0E0"/>
<path d="M1024.45 437.711C1024.88 439.405 1025.13 441.14 1025.19 442.887C1025.48 446.087 1025.74 450.533 1025.92 455.452C1026.09 460.371 1026.17 464.441 1026.27 468.016C1026.42 469.752 1026.42 471.497 1026.27 473.232C1025.84 471.538 1025.61 469.802 1025.56 468.056C1025.3 464.836 1025.09 460.391 1024.91 455.491C1024.73 450.592 1024.61 446.502 1024.47 442.927C1024.32 441.192 1024.31 439.447 1024.45 437.711Z" fill="#E0E0E0"/>
<path d="M1027.93 473.923C1034.69 472.832 1041.5 472.087 1048.34 471.691C1059.62 470.762 1068.81 470.229 1068.83 470.506C1062.06 471.586 1055.25 472.324 1048.42 472.718C1037.14 473.667 1027.97 474.2 1027.93 473.923Z" fill="#E0E0E0"/>
<path d="M995.156 512.013C996.928 512.149 998.686 512.433 1000.41 512.862C1003.65 513.475 1008.1 514.324 1013.04 515.114C1017.97 515.905 1022.46 516.497 1025.72 516.912C1027.5 517.054 1029.26 517.338 1030.99 517.762C1029.22 517.914 1027.43 517.874 1025.66 517.643C1022.36 517.406 1017.76 516.932 1012.88 516.122C1008 515.312 1003.45 514.364 1000.25 513.573C998.503 513.237 996.795 512.714 995.156 512.013Z" fill="#E0E0E0"/>
<path d="M984.804 479.969C985.624 481.401 986.287 482.918 986.78 484.493C987.827 487.357 989.23 491.309 990.731 495.694C992.232 500.08 993.497 504.071 994.386 506.995C994.942 508.54 995.353 510.134 995.611 511.756C994.778 510.323 994.115 508.798 993.635 507.212C992.568 504.367 991.185 500.416 989.684 496.03C988.182 491.644 986.918 487.634 986.029 484.73C985.449 483.192 985.038 481.596 984.804 479.969Z" fill="#E0E0E0"/>
<path d="M951.595 509.919C952.546 511.797 953.352 513.745 954.005 515.747C955.368 519.401 957.185 524.459 959.141 530.07C961.097 535.68 962.796 540.777 964.001 544.472C964.744 546.448 965.319 548.483 965.72 550.556C964.752 548.652 963.946 546.669 963.31 544.63C961.947 540.995 960.129 535.937 958.173 530.326C956.217 524.716 954.499 519.619 953.313 515.905C952.574 513.961 951.999 511.959 951.595 509.919Z" fill="#E0E0E0"/>
<path d="M965.661 549.49C967.911 549.618 970.149 549.908 972.358 550.359C976.467 551.011 982.236 551.9 988.459 552.729C994.682 553.559 1000.47 554.191 1004.6 554.705C1006.85 554.853 1009.09 555.15 1011.3 555.594C1009.04 555.731 1006.78 555.678 1004.54 555.436C1000.37 555.159 994.662 554.646 988.321 553.796C981.979 552.947 976.309 551.959 972.22 551.149C969.992 550.775 967.798 550.22 965.661 549.49Z" fill="#E0E0E0"/>
<path d="M1007.01 191.795L1002.33 345.009L1114.29 348.43L1118.97 195.216L1007.01 191.795Z" fill="#F5F5F5"/>
<path d="M986.397 212.163L981.715 365.377L1093.68 368.798L1098.36 215.583L986.397 212.163Z" fill="white"/>
<path d="M1093.66 368.763C1093.65 368.513 1093.65 368.262 1093.66 368.012C1093.66 367.499 1093.66 366.787 1093.66 365.859C1093.66 363.883 1093.76 361.118 1093.86 357.482C1094.05 350.153 1094.33 339.505 1094.69 326.011C1095.46 299.045 1096.54 260.817 1097.83 215.556L1098.28 216.031L986.326 212.652L986.859 212.158C985.061 269.45 983.421 322.376 982.078 365.365L981.663 364.93L1062.98 367.637L1085.6 368.427L1091.53 368.664L1093.6 368.763H1091.62L1085.7 368.625L1063.18 368.052L981.604 365.78H981.189V365.365C982.473 322.357 984.054 269.371 985.772 212.139V211.625H986.306L1098.24 215.102H1098.72V215.576C1097.23 261.015 1095.99 299.301 1095.1 326.327C1094.65 339.761 1094.27 350.39 1094.03 357.68C1093.9 361.276 1093.8 364.041 1093.72 365.958C1093.72 366.866 1093.72 367.578 1093.62 368.072C1093.52 368.566 1093.66 368.763 1093.66 368.763Z" fill="#E0E0E0"/>
<path d="M1054.7 247.601C1054.7 247.897 1042.51 247.739 1027.5 247.284C1012.48 246.83 1000.29 246.218 1000.29 245.941C1000.29 245.664 1012.5 245.803 1027.52 246.257C1042.53 246.711 1054.7 247.324 1054.7 247.601Z" fill="#E0E0E0"/>
<path d="M1083.62 261.825C1083.62 262.101 1064.85 261.825 1041.7 261.054C1018.55 260.284 999.779 259.533 999.799 259.256C999.819 258.98 1018.57 259.256 1041.74 260.027C1064.91 260.797 1083.64 261.528 1083.62 261.825Z" fill="#E0E0E0"/>
<path d="M1083.21 275.713C1083.21 275.99 1064.42 275.713 1041.27 274.942C1018.11 274.172 999.365 273.421 999.365 273.145C999.365 272.868 1018.15 273.145 1041.31 273.915C1064.46 274.686 1083.21 275.417 1083.21 275.713Z" fill="#E0E0E0"/>
<path d="M1082.77 289.601C1082.77 289.878 1064.01 289.601 1040.85 288.831C1017.7 288.06 998.95 287.31 998.95 287.033C998.95 286.757 1017.74 287.033 1040.89 287.804C1064.05 288.574 1082.79 289.364 1082.77 289.601Z" fill="#E0E0E0"/>
<path d="M1082.36 303.49C1082.36 303.766 1063.57 303.49 1040.44 302.719C1017.3 301.949 998.515 301.198 998.515 300.922C998.515 300.645 1017.3 300.922 1040.46 301.692C1063.61 302.462 1082.36 303.193 1082.36 303.49Z" fill="#E0E0E0"/>
<path d="M1081.94 317.378C1081.94 317.655 1063.16 317.378 1040 316.608C1016.85 315.837 998.1 315.086 998.1 314.81C998.1 314.533 1016.89 314.81 1040.04 315.58C1063.2 316.351 1081.94 317.022 1081.94 317.378Z" fill="#E0E0E0"/>
<path d="M1081.51 331.266C1081.51 331.543 1062.72 331.266 1039.59 330.496C1016.45 329.725 997.666 328.975 997.685 328.698C997.705 328.422 1016.45 328.698 1039.61 329.469C1062.76 330.239 1081.53 330.97 1081.51 331.266Z" fill="#E0E0E0"/>
<path d="M1042.31 343.969C1042.31 344.246 1032.22 344.167 1019.77 343.791C1007.33 343.416 997.25 342.863 997.25 342.586C997.25 342.31 1007.35 342.389 1019.79 342.764C1032.24 343.14 1042.31 343.673 1042.31 343.969Z" fill="#E0E0E0"/>
<path d="M809.333 115.516L774.299 203.507L884.352 247.325L919.386 159.334L809.333 115.516Z" fill="white"/>
<path d="M919.366 159.341L918.832 159.143L917.291 158.551L911.365 156.18L888.784 147.191L809.247 115.582L809.484 115.483L774.476 203.456L774.358 203.179L884.398 247.037H884.181C894.77 220.525 903.561 198.556 909.685 183.206C912.767 175.541 915.178 169.515 916.817 165.426L918.793 160.743L919.445 159.123L918.832 160.724C918.418 161.791 917.805 163.351 916.995 165.386C915.375 169.495 913.044 175.521 909.962 183.166C903.857 198.536 895.106 220.564 884.576 247.136V247.294H884.418L774.22 203.693H774.022V203.495C786.685 171.728 798.638 141.699 809.069 115.522V115.344H809.227L888.962 147.191L911.424 156.2L917.351 158.57L918.872 159.183L919.366 159.341Z" fill="#E0E0E0"/>
<path d="M810.838 122.663L780.218 199.569L882.545 240.31L913.165 163.405L810.838 122.663Z" fill="#EBEBEB"/>
<path d="M780.62 199.801L835.403 166.216L845.637 204.937L867.013 194.941L882.956 240.537L780.62 199.801Z" fill="#E0E0E0"/>
<path d="M869.264 172.874C868.63 174.468 867.537 175.838 866.123 176.811C864.71 177.783 863.04 178.315 861.324 178.338C859.609 178.362 857.925 177.876 856.485 176.942C855.046 176.008 853.916 174.668 853.238 173.091C852.561 171.515 852.366 169.773 852.679 168.086C852.991 166.399 853.798 164.842 854.995 163.614C856.193 162.385 857.728 161.539 859.406 161.183C861.085 160.826 862.831 160.976 864.424 161.613C865.483 162.033 866.448 162.658 867.264 163.451C868.081 164.245 868.732 165.192 869.182 166.238C869.632 167.285 869.87 168.409 869.885 169.548C869.899 170.686 869.688 171.817 869.264 172.874Z" fill="#E0E0E0"/>
<path d="M478.718 251.552C479.462 251.858 480.267 251.987 481.069 251.927C482.031 251.817 482.924 251.377 483.598 250.682C484.38 249.6 485.073 248.457 485.672 247.265L498.494 224.901L502.761 217.512L505.033 213.561C505.429 212.931 505.772 212.271 506.06 211.585C506.268 210.903 506.268 210.174 506.06 209.491C505.883 208.789 505.489 208.16 504.934 207.694C504.301 207.245 503.642 206.836 502.959 206.469L498.553 204.019L489.386 198.882L448.571 175.985C447.766 175.555 446.829 175.438 445.943 175.656C445.056 175.875 444.282 176.415 443.77 177.171L440.708 182.426C438.732 185.903 436.757 189.36 434.781 192.738L423.323 212.316C422.868 213.087 422.414 213.857 421.979 214.628C421.539 215.295 421.312 216.081 421.328 216.88C421.359 217.66 421.643 218.409 422.137 219.014C422.699 219.595 423.37 220.059 424.113 220.377L432.746 225.276L448.195 234.048L470.559 246.83L476.624 250.346L478.185 251.275C478.54 251.492 478.718 251.611 478.699 251.631L478.145 251.374L476.525 250.524L470.381 247.166L447.84 234.68L432.391 225.928L423.738 221.088C422.899 220.718 422.141 220.188 421.505 219.527C420.888 218.764 420.535 217.821 420.498 216.84C420.455 215.863 420.718 214.897 421.248 214.075C421.683 213.304 422.138 212.534 422.592 211.763L433.912 192.225L439.839 181.912L442.94 176.598C443.594 175.628 444.585 174.936 445.72 174.655C446.855 174.374 448.054 174.524 449.084 175.077L489.861 198.053L499.027 203.229L503.393 205.718C504.147 206.101 504.873 206.537 505.566 207.022C506.255 207.61 506.745 208.396 506.969 209.274C507.206 210.114 507.206 211.003 506.969 211.842C506.654 212.59 506.278 213.31 505.843 213.996L503.532 217.947L499.225 225.316C493.713 234.641 489.248 242.207 486.127 247.521C485.479 248.716 484.739 249.859 483.914 250.939C483.179 251.66 482.214 252.1 481.188 252.184C480.567 252.229 479.944 252.128 479.37 251.887C479.138 251.806 478.919 251.693 478.718 251.552Z" fill="#E0E0E0"/>
<path d="M468.287 211.052L473.266 219.883L462.993 220.08L452.72 220.258L458.014 211.23L463.309 202.201L468.287 211.052Z" fill="#E0E0E0"/>
<path d="M1138.27 587.678C1138.27 587.974 949.303 588.211 716.282 588.211C483.262 588.211 294.238 588.013 294.238 587.678C294.238 587.342 483.163 587.124 716.282 587.124C949.402 587.124 1138.27 587.421 1138.27 587.678Z" fill="#263238"/>
<path d="M503.137 462.208L443.494 402.289L473.483 347.209C503.472 308.804 566.968 311.274 566.968 311.274C598.293 309.144 629.762 311.077 660.591 317.023C711.028 326.9 706.958 360.209 706.958 360.209L713.714 483.821L720.965 584.477L534.963 588.231L503.137 462.287" fill="#0DA8EF"/>
<path d="M603.338 582.344L436.737 584.319C427.559 584.426 418.505 582.198 410.425 577.845C402.344 573.492 395.503 567.156 390.543 559.433C385.584 551.71 382.669 542.853 382.071 533.695C381.474 524.536 383.215 515.375 387.13 507.074L458.37 374.966L523.268 418.824L478.995 510.63L613.848 513.04L603.338 582.344Z" fill="#0DA8EF"/>
<path d="M701.071 340.058L834.758 546.467L756.762 551.564C756.762 551.564 710.178 478.171 711.225 479.672C713.082 482.438 701.071 340.058 701.071 340.058Z" fill="#0DA8EF"/>
<path d="M519.909 430.698C519.914 430.335 519.974 429.975 520.087 429.631C520.285 428.841 520.502 427.853 520.798 426.628C521.411 424.04 522.319 420.286 523.248 415.624C524.177 410.962 525.224 405.351 525.876 399.108C526.678 392.342 526.678 385.505 525.876 378.74C524.804 372.031 522.464 365.588 518.981 359.754C516.182 354.952 512.87 350.467 509.103 346.38C506.564 343.585 503.859 340.946 501.003 338.477C499.914 337.625 498.872 336.715 497.881 335.751C498.203 335.911 498.508 336.103 498.79 336.324C499.343 336.739 500.232 337.312 501.26 338.161C504.231 340.507 507.03 343.062 509.636 345.807C513.53 349.864 516.95 354.351 519.83 359.181C523.436 365.105 525.851 371.674 526.942 378.522C527.725 385.372 527.672 392.291 526.784 399.128C526.117 404.691 525.168 410.216 523.939 415.683C522.912 420.365 521.964 424.099 521.154 426.667C520.798 427.952 520.482 428.939 520.265 429.611C520.182 429.984 520.063 430.348 519.909 430.698Z" fill="#263238"/>
<path d="M514.536 437.81C514.25 438.839 513.867 439.838 513.39 440.793C512.6 442.768 511.414 445.416 509.893 448.695C506.87 455.392 502.583 464.599 497.644 474.674C492.705 484.75 488.043 493.778 484.586 500.357C482.847 503.597 481.425 506.284 480.417 508.002C479.936 508.959 479.381 509.877 478.758 510.748C479.113 509.74 479.549 508.762 480.062 507.825C481.069 505.849 482.373 503.202 484.013 500.021L496.795 474.338C501.635 464.322 506.041 455.274 509.32 448.498C510.861 445.317 512.125 442.67 513.113 440.595C513.509 439.629 513.984 438.697 514.536 437.81Z" fill="#263238"/>
<path d="M603.338 582.344C603.338 582.344 603.338 582.225 603.338 582.008C603.338 581.791 603.338 581.395 603.338 580.981C603.437 580.032 603.575 578.709 603.733 577.029C604.128 573.513 604.682 568.515 605.373 562.212C606.835 549.43 608.929 531.453 611.3 510.255L611.774 510.768H562.562L476.604 510.63L450.527 510.472L443.434 510.373H441.577H440.945C441.155 510.348 441.367 510.348 441.577 510.373H443.434L450.527 510.274L476.604 510.116L562.7 509.978H611.912H612.446V510.492C609.838 531.67 607.645 549.648 606.064 562.41C605.274 568.692 604.622 573.691 604.089 577.207C603.878 578.867 603.7 580.184 603.555 581.158L603.397 582.166C603.378 582.225 603.358 582.344 603.338 582.344Z" fill="#263238"/>
<path d="M480.16 512.092C478.967 510.774 477.859 509.382 476.841 507.923C471.517 501.239 464.924 495.673 457.441 491.546C455.843 490.772 454.287 489.915 452.779 488.978C454.532 489.388 456.216 490.054 457.777 490.953C465.571 494.803 472.31 500.492 477.414 507.528C478.536 508.915 479.46 510.451 480.16 512.092Z" fill="#263238"/>
<path d="M716.48 525.17C716.335 524.607 716.243 524.031 716.203 523.451C716.065 522.246 715.887 520.606 715.65 518.532C715.196 514.265 714.583 508.081 713.931 500.436C712.568 485.125 711.008 463.947 709.625 440.556C708.242 417.165 707.274 395.947 706.721 380.597C706.444 372.912 706.246 366.768 706.167 362.402C706.167 360.327 706.167 358.688 706.069 357.463C706.039 356.89 706.039 356.316 706.069 355.744C706.178 356.311 706.237 356.886 706.246 357.463C706.246 358.668 706.404 360.327 706.523 362.402C706.74 366.787 707.037 372.971 707.412 380.557C708.143 395.908 709.23 417.086 710.612 440.496C711.995 463.907 713.457 485.046 714.564 500.376C715.156 507.943 715.63 514.206 715.966 518.512C716.124 520.488 716.243 522.226 716.342 523.432C716.44 524.006 716.487 524.588 716.48 525.17Z" fill="#263238"/>
<path d="M567.758 412.858C567.767 411.952 567.839 411.047 567.975 410.152C568.212 408.275 568.509 405.766 568.884 402.684C569.753 396.164 570.86 387.235 572.322 376.883L573.072 377.357L560.29 386.306L547.291 395.354L546.362 396.006L546.52 394.88C548.101 384.627 549.444 375.776 550.472 369.198C550.985 366.175 551.38 363.686 551.697 361.829C551.803 360.938 551.988 360.059 552.25 359.201C552.251 360.102 552.172 361.001 552.013 361.888C551.776 363.745 551.479 366.234 551.084 369.296C550.195 375.776 548.95 384.647 547.528 394.979L546.777 394.505L559.757 385.417L572.559 376.507L573.487 375.855L573.329 376.981C571.808 387.294 570.484 396.224 569.536 402.664C569.042 405.726 568.647 408.235 568.351 410.092C568.236 411.03 568.038 411.956 567.758 412.858Z" fill="#E0E0E0"/>
<path d="M642.119 420.859C641.407 420.292 640.746 419.664 640.143 418.982C638.859 417.599 637.121 415.762 634.987 413.51L617.345 394.386L618.195 394.09C617.78 398.93 617.345 404.185 616.891 409.638C616.436 415.09 615.962 420.504 615.547 425.443L615.449 426.588L614.698 425.739L597.53 406.378L592.631 400.728C592.007 400.081 591.451 399.373 590.971 398.614C591.682 399.218 592.342 399.879 592.947 400.59L598.044 406.042L615.468 425.146L614.619 425.443C615.034 420.523 615.468 415.189 615.942 409.638C616.417 404.086 616.851 398.93 617.266 394.09L617.365 392.964L618.116 393.794L635.501 413.174L640.459 418.844C641.064 419.471 641.619 420.145 642.119 420.859Z" fill="#E0E0E0"/>
<path d="M679.536 418.212C679.169 419.045 678.718 419.839 678.193 420.583L674.242 426.944L660.136 448.834L659.662 448.083L674.993 445.436L690.6 442.808L691.726 442.611L691.192 443.46L676.771 464.915L672.424 471.118C671.942 471.878 671.4 472.598 670.804 473.272C671.194 472.463 671.643 471.684 672.148 470.941L676.099 464.619L690.224 442.887L690.718 443.638L675.111 446.344L659.721 448.952L658.595 449.13L659.227 448.202L673.629 426.47L677.857 420.247C678.376 419.536 678.937 418.856 679.536 418.212Z" fill="#E0E0E0"/>
<path d="M629.772 456.499C629.4 457.324 628.95 458.111 628.428 458.85L624.477 465.231L610.391 487.101L609.897 486.35L625.267 483.703L640.894 481.055L642.02 480.878L641.368 481.806L626.946 503.281L622.699 509.445C622.227 510.205 621.685 510.92 621.079 511.578C621.474 510.772 621.923 509.993 622.422 509.247C623.45 507.667 624.793 505.553 626.374 502.945L640.499 481.213L640.993 481.964L625.386 484.671L609.996 487.259L608.87 487.456L609.502 486.508L623.904 464.777C625.643 462.208 627.065 460.114 628.152 458.554C628.641 457.83 629.183 457.144 629.772 456.499Z" fill="#E0E0E0"/>
<path d="M737.303 417.777C736.911 418.592 736.462 419.377 735.959 420.128L732.008 426.51L717.922 448.379L717.428 447.629L732.798 444.981L748.425 442.334L749.551 442.156L748.919 443.085L734.478 464.559C732.739 467.088 731.317 469.162 730.23 470.703C729.762 471.473 729.22 472.194 728.61 472.857C729.009 472.048 729.464 471.269 729.973 470.526L733.924 464.224L748.05 442.492L748.544 443.243L732.937 445.93L717.547 448.537L716.44 448.735L717.053 447.787L731.455 426.055L735.702 419.832C736.168 419.097 736.704 418.409 737.303 417.777Z" fill="#E0E0E0"/>
<path d="M799.336 517.229C798.63 516.691 797.969 516.096 797.36 515.45L791.947 510.235L773.357 492.02L774.187 491.684C774.029 496.544 773.871 501.799 773.693 507.272C773.515 512.744 773.298 518.177 773.12 523.076V524.222L772.31 523.412L754.214 504.94L749.038 499.547C748.395 498.936 747.8 498.275 747.26 497.571C747.963 498.112 748.624 498.707 749.235 499.349L754.609 504.545L772.982 522.76L772.132 523.096C772.29 518.157 772.468 512.823 772.646 507.291C772.824 501.76 773.041 496.564 773.219 491.704V490.578L774.009 491.368L792.323 509.86L797.558 515.273C798.204 515.874 798.799 516.528 799.336 517.229Z" fill="#E0E0E0"/>
<path d="M485.514 386.049C485.128 386.866 484.679 387.652 484.171 388.4L480.22 394.781L466.134 416.671L465.64 415.92L481.01 413.253L496.637 410.626L497.763 410.428L497.131 411.376L482.689 432.831L478.462 438.995C477.982 439.75 477.44 440.464 476.842 441.129C477.22 440.32 477.67 439.546 478.185 438.817L482.136 432.495C485.712 427.023 490.611 419.516 496.262 410.764L496.756 411.515L481.148 414.221L465.759 416.829L464.652 417.007L465.265 416.078C471.053 407.386 476.032 399.878 479.667 394.347L483.914 388.124C484.392 387.391 484.927 386.698 485.514 386.049Z" fill="#E0E0E0"/>
<path d="M407.4 533.784C408.065 534.385 408.674 535.046 409.217 535.759L414.038 541.548L430.415 561.758L429.546 561.995C430.257 557.195 431.008 551.979 431.818 546.546C432.628 541.113 433.418 535.759 434.149 530.88L434.307 529.754L435.018 530.662L450.941 551.05L455.466 556.977C456.04 557.663 456.556 558.397 457.007 559.17C456.358 558.558 455.757 557.898 455.209 557.195L450.467 551.426L434.366 531.255L435.236 531.038C434.524 535.917 433.754 541.212 432.944 546.704C432.134 552.196 431.363 557.333 430.632 562.134L430.474 563.26L429.763 562.371L413.642 541.943L409.039 536.016C408.443 535.31 407.895 534.564 407.4 533.784Z" fill="#E0E0E0"/>
<path d="M585.795 438.126C584.91 438.316 584.012 438.435 583.108 438.482L575.601 439.134L549.642 441.109L549.958 440.28L561.337 450.948L572.855 461.813L573.685 462.604H572.539L546.718 464.026L539.25 464.342C538.356 464.42 537.457 464.42 536.563 464.342C537.443 464.166 538.334 464.053 539.23 464.006L546.678 463.414L572.479 461.636L572.183 462.465L560.626 451.639L549.286 440.931L548.456 440.141H549.582L575.561 438.58L583.069 438.205C583.974 438.11 584.885 438.084 585.795 438.126Z" fill="#E0E0E0"/>
<path d="M542.016 537.695C542.675 538.315 543.295 538.975 543.873 539.671L548.792 545.361L565.605 565.235L564.735 565.472C565.348 560.652 566.019 555.436 566.711 550.003C567.402 544.57 568.114 539.177 568.687 534.297L568.845 533.152L569.556 534.041L585.914 554.093L590.556 560.02C591.132 560.707 591.66 561.433 592.137 562.193C591.47 561.586 590.856 560.926 590.299 560.217L585.439 554.547L568.845 534.791L569.694 534.535C569.082 539.434 568.41 544.729 567.718 550.24C567.027 555.752 566.336 560.909 565.743 565.729L565.585 566.855L564.874 565.986L548.338 545.874L543.636 539.948C543.023 539.252 542.481 538.498 542.016 537.695Z" fill="#E0E0E0"/>
<path d="M463.763 464.678C462.879 464.872 461.98 464.991 461.076 465.033L453.589 465.666L427.63 467.641L427.926 466.792L439.325 477.48L450.843 488.345L451.673 489.135H450.527L424.706 490.558L417.238 490.874C416.364 490.948 415.485 490.948 414.611 490.874C415.488 490.685 416.381 490.573 417.278 490.538L424.726 489.945L450.527 488.148L450.23 488.997L438.673 478.171L427.314 467.463L426.504 466.673H427.63L453.609 465.093L461.116 464.737C461.996 464.651 462.88 464.631 463.763 464.678Z" fill="#E0E0E0"/>
<path d="M530.992 535.463C530.108 535.651 529.209 535.763 528.306 535.799L520.798 536.451L494.839 538.426L495.155 537.577L506.535 548.265L518.052 559.13L518.882 559.921H517.756L491.915 561.323L484.448 561.659C483.554 561.737 482.655 561.737 481.761 561.659C482.638 561.47 483.531 561.358 484.428 561.323L491.876 560.731L517.677 558.933L517.381 559.782L505.823 548.956L494.484 538.288L493.654 537.518H494.78L520.759 535.937L528.286 535.582C529.183 535.46 530.089 535.421 530.992 535.463Z" fill="#E0E0E0"/>
<path d="M682.737 355.369C681.852 355.558 680.954 355.677 680.05 355.724L672.543 356.357L646.604 358.332L646.9 357.502L658.279 368.171L669.797 379.036L670.627 379.826H669.501L643.66 381.249L636.192 381.565C635.298 381.643 634.399 381.643 633.505 381.565C634.383 381.376 635.275 381.264 636.173 381.229L643.62 380.636L669.441 378.858L669.125 379.688L657.608 368.882L646.268 358.174L645.438 357.384H646.564L672.543 355.803L680.07 355.448C680.956 355.355 681.847 355.328 682.737 355.369Z" fill="#E0E0E0"/>
<path d="M608.929 535.463C608.929 535.463 642.158 525.881 653.162 523.076C657.449 521.99 675.803 531.67 688.486 539.73C688.486 539.73 705.95 550.082 704.547 553.263C702.987 556.78 696.645 556.068 686.273 551.287C686.273 551.287 689.869 561.699 682.816 561.462C682.816 561.462 686.313 572.723 679.714 573.888C673.116 575.054 671.575 560.691 665.767 559.921C659.958 559.15 647.986 558.36 647.986 558.36C647.986 558.36 637.97 574.955 630.206 576.14C622.442 577.326 604.523 575.212 604.523 575.212L608.929 535.463Z" fill="#FFBE9D"/>
<path d="M665.648 537.755C668.901 539.203 672.01 540.956 674.933 542.99C678.035 544.745 680.959 546.796 683.665 549.114C677.302 545.927 671.267 542.122 665.648 537.755Z" fill="#EB996E"/>
<path d="M663.692 544.215C667.488 545.409 671.176 546.923 674.716 548.739C678.376 550.226 681.905 552.017 685.266 554.093C681.468 552.911 677.78 551.404 674.242 549.588C670.575 548.109 667.045 546.311 663.692 544.215Z" fill="#EB996E"/>
<path d="M667.248 559.644C672.267 559.626 677.265 560.29 682.105 561.62C677.086 561.634 672.089 560.969 667.248 559.644Z" fill="#EB996E"/>
<path d="M565.684 192.561C566.075 193.841 566.08 195.208 565.7 196.491C565.319 197.775 564.569 198.917 563.542 199.777C562.516 200.637 561.26 201.175 559.93 201.325C558.599 201.475 557.254 201.23 556.063 200.621C551.558 198.349 550.985 192.126 551.874 187.167C552.763 182.209 554.443 176.894 552.368 172.291C550.768 168.775 547.311 166.542 544.624 163.776C542.253 161.372 540.471 158.451 539.419 155.243C538.367 152.035 538.072 148.626 538.559 145.285C539.128 141.954 540.606 138.844 542.83 136.299C545.055 133.755 547.938 131.873 551.163 130.863C557.781 129.026 565.94 131.061 570.919 126.26C574.495 122.783 574.712 117.113 577.478 112.964C581.765 106.524 590.833 105.497 598.498 106.544C606.163 107.591 613.947 110.06 621.454 108.183C627.717 106.623 632.854 102.257 638.741 99.5698C645.157 96.6368 652.33 95.7824 659.256 97.1261C666.181 98.4698 672.514 101.944 677.368 107.064C682.222 112.184 685.355 118.692 686.328 125.68C687.302 132.667 686.067 139.784 682.796 146.036C680.616 150.61 676.905 154.279 672.306 156.407" fill="#263238"/>
<path d="M603.812 355.764C608.85 355.754 613.836 354.744 618.481 352.793C623.126 350.842 627.337 347.988 630.871 344.397C634.404 340.807 637.19 336.55 639.067 331.875C640.944 327.2 641.873 322.198 641.803 317.161L641.309 280.85C641.309 280.85 671.812 277.787 673.827 247.561C675.842 217.334 674.4 147.577 674.4 147.577C657.616 139.25 638.915 135.551 620.225 136.86C601.536 138.169 583.533 144.44 568.074 155.025L563.412 158.245L565.684 318.149C565.803 328.177 569.875 337.752 577.014 344.795C584.154 351.839 593.784 355.78 603.812 355.764Z" fill="#FFBE9D"/>
<path d="M666.419 202.439C665.316 202.312 664.298 201.784 663.559 200.955C662.82 200.126 662.411 199.054 662.411 197.944C662.411 196.834 662.82 195.762 663.559 194.933C664.298 194.105 665.316 193.576 666.419 193.45C666.659 193.39 666.91 193.39 667.15 193.45C668.253 193.576 669.271 194.105 670.009 194.933C670.748 195.762 671.157 196.834 671.157 197.944C671.157 199.054 670.748 200.126 670.009 200.955C669.271 201.784 668.253 202.312 667.15 202.439C666.907 202.478 666.661 202.478 666.419 202.439Z" fill="#263238"/>
<path d="M672.345 192.679C671.852 193.193 669.007 190.704 664.838 190.486C660.67 190.269 657.529 192.225 657.114 191.672C656.699 191.118 657.41 190.506 658.793 189.577C660.641 188.392 662.821 187.83 665.011 187.976C667.202 188.122 669.288 188.967 670.963 190.387C672.207 191.494 672.602 192.561 672.345 192.679Z" fill="#263238"/>
<path d="M624.161 193.707C624.877 194.203 625.431 194.9 625.751 195.711C626.071 196.522 626.143 197.41 625.958 198.262C625.774 199.114 625.341 199.892 624.714 200.497C624.086 201.103 623.294 201.509 622.436 201.664C621.578 201.819 620.694 201.716 619.894 201.368C619.095 201.02 618.417 200.443 617.946 199.709C617.475 198.976 617.232 198.119 617.248 197.247C617.264 196.376 617.538 195.528 618.036 194.813C618.703 193.855 619.722 193.201 620.87 192.993C622.018 192.786 623.201 193.042 624.161 193.707Z" fill="#263238"/>
<path d="M626.907 193.884C626.393 194.398 623.548 191.909 619.4 191.691C615.251 191.474 612.09 193.43 611.655 192.877C611.438 192.62 611.971 191.711 613.335 190.783C615.182 189.597 617.362 189.036 619.553 189.181C621.744 189.327 623.83 190.172 625.504 191.593C626.749 192.699 627.144 193.667 626.907 193.884Z" fill="#263238"/>
<path d="M641.803 229.168C641.803 228.852 644.391 228.457 648.619 228.101C649.705 228.101 650.594 227.845 650.693 227.272C650.772 226.182 650.561 225.091 650.081 224.111C649.152 221.286 648.223 218.441 647.236 215.458C643.285 203.15 640.697 193.015 641.309 192.817C641.921 192.62 645.596 202.438 649.488 214.746C650.397 217.749 651.286 220.673 652.135 223.439C652.762 224.877 652.888 226.485 652.491 228.003C652.314 228.412 652.043 228.775 651.7 229.06C651.357 229.345 650.951 229.544 650.515 229.642C649.9 229.78 649.267 229.826 648.638 229.781C644.371 229.702 641.803 229.504 641.803 229.168Z" fill="#263238"/>
<path d="M627.974 233.04C634.323 236.3 641.09 238.673 648.085 240.093C646.552 242.2 644.35 243.725 641.839 244.421C639.328 245.117 636.655 244.942 634.256 243.926C625.346 240.113 627.974 233.04 627.974 233.04Z" fill="white"/>
<path d="M641.427 280.415C627.442 279.916 613.922 275.267 602.587 267.06C602.587 267.06 610.727 289.325 641.052 288.258L641.427 280.415Z" fill="#EB996E"/>
<path d="M674.657 155.222C674.657 155.222 656.383 164.507 632.182 153.009C616.377 145.463 597.866 141.966 593.875 145.226C589.885 148.485 589.351 164.685 573.863 169.723C573.863 169.723 575.542 200.66 563.175 199.791C550.808 198.922 557.604 150.856 557.604 150.856L587.494 135.525L620.309 128.67L651.424 132.444L675.566 138.548L674.657 155.222Z" fill="#263238"/>
<path d="M565.427 189.854C564.933 189.597 544.979 182.564 544.525 203.288C544.071 224.012 564.953 220.199 564.992 219.606C565.032 219.014 565.427 189.854 565.427 189.854Z" fill="#FFBE9D"/>
<path d="M558.828 211.605C558.828 211.605 558.453 211.862 557.84 212.119C556.973 212.471 556.002 212.471 555.134 212.119C552.961 211.269 551.183 207.753 551.183 204.019C551.18 202.239 551.564 200.48 552.309 198.863C552.522 198.221 552.886 197.64 553.371 197.169C553.856 196.698 554.447 196.35 555.094 196.156C555.513 196.08 555.944 196.141 556.325 196.33C556.706 196.518 557.015 196.825 557.208 197.203C557.465 197.776 557.327 198.191 557.426 198.231C557.524 198.27 557.88 197.895 557.742 197.045C557.633 196.528 557.355 196.062 556.951 195.722C556.392 195.282 555.684 195.077 554.976 195.149C554.12 195.296 553.317 195.661 552.643 196.207C551.968 196.754 551.445 197.464 551.124 198.27C550.211 200.049 549.737 202.02 549.741 204.019C549.741 208.188 551.835 212.158 554.798 213.087C555.352 213.256 555.937 213.301 556.51 213.219C557.084 213.138 557.632 212.93 558.117 212.613C558.828 212.119 558.828 211.645 558.828 211.605Z" fill="#EB996E"/>
<path d="M554.877 124.996C557.241 124.302 559.766 124.393 562.074 125.255C564.382 126.117 566.348 127.703 567.679 129.777C565.837 128.381 563.85 127.189 561.752 126.22C559.509 125.574 557.205 125.164 554.877 124.996Z" fill="#263238"/>
<path d="M567.343 112.589C567.718 112.589 567.146 116.955 567.857 122.131C568.472 125.243 569.446 128.273 570.761 131.159C570.761 131.159 569.892 130.428 569.022 128.887C567.907 126.837 567.171 124.601 566.849 122.289C566.274 119.06 566.443 115.743 567.343 112.589Z" fill="#263238"/>
<path d="M652.471 182.683C652.352 182.446 653.241 181.715 654.921 181.043C659.378 179.319 664.327 179.369 668.75 181.181C670.409 181.892 671.298 182.623 671.18 182.86C670.923 183.414 666.932 181.853 661.815 181.853C656.699 181.853 652.708 183.295 652.471 182.683Z" fill="#263238"/>
<path d="M606.242 178.376C606.124 178.139 607.013 177.428 608.692 176.736C610.903 175.882 613.257 175.459 615.626 175.491C618.006 175.491 620.363 175.961 622.561 176.874C624.22 177.586 625.09 178.317 624.991 178.573C624.892 178.83 620.743 177.566 615.607 177.546C610.47 177.526 606.519 178.929 606.242 178.376Z" fill="#263238"/>
<path d="M648.895 186.002C648.94 186.409 648.94 186.819 648.895 187.226C648.895 188.096 648.895 189.202 648.994 190.565C649.093 191.928 648.994 193.766 649.113 195.741C649.038 198.021 649.373 200.296 650.1 202.458C651.053 205.263 652.702 207.78 654.893 209.773C657.083 211.767 659.744 213.172 662.626 213.857C664.279 214.261 665.985 214.408 667.683 214.292C669.45 214.213 671.191 213.846 672.839 213.205C676.354 211.889 679.348 209.47 681.374 206.311C683.292 203.294 684.256 199.769 684.14 196.196C684.14 192.659 684.14 189.261 684.14 186.002L684.614 186.476L658.931 186.239L651.483 186.1H649.508H648.777C649.623 186.006 650.474 185.967 651.325 185.982L658.655 185.844L684.614 185.606H685.266V186.1C685.266 189.36 685.266 192.758 685.266 196.294C685.398 200.062 684.386 203.782 682.362 206.963C680.214 210.307 677.039 212.865 673.314 214.252C671.563 214.925 669.715 215.305 667.841 215.379C666.055 215.485 664.263 215.318 662.527 214.885C659.505 214.154 656.721 212.658 654.445 210.541C652.168 208.423 650.475 205.755 649.527 202.794C648.818 200.534 648.523 198.165 648.658 195.8C648.658 193.825 648.658 191.988 648.757 190.486C648.856 188.985 648.757 188.056 648.856 187.187C648.837 186.791 648.851 186.395 648.895 186.002Z" fill="#263238"/>
<path d="M600.474 184.974C600.474 184.974 600.474 185.429 600.474 186.199V189.538C600.474 191 600.474 192.738 600.572 194.734C600.521 197.012 600.855 199.283 601.56 201.451C602.47 204.052 603.964 206.41 605.926 208.345C608.192 210.548 611.011 212.097 614.085 212.83C617.484 213.649 621.051 213.422 624.319 212.178C627.823 210.863 630.81 208.452 632.834 205.303C634.759 202.288 635.729 198.763 635.619 195.188C635.619 191.652 635.619 188.234 635.619 184.974L636.093 185.448L610.411 185.211L602.983 185.093H601.007H600.276C601.116 184.999 601.96 184.96 602.805 184.974L610.134 184.856L636.093 184.619H636.568V185.093C636.568 188.353 636.568 191.77 636.568 195.307C636.687 199.076 635.668 202.793 633.644 205.975C631.497 209.308 628.33 211.858 624.615 213.245C622.865 213.916 621.016 214.296 619.143 214.371C617.35 214.477 615.552 214.31 613.809 213.877C610.581 213.082 607.63 211.422 605.274 209.076C603.236 207.029 601.707 204.532 600.81 201.786C600.1 199.527 599.805 197.157 599.94 194.793C599.94 192.817 599.94 190.98 600.059 189.479C600.177 187.977 600.059 187.049 600.059 186.179C600.131 185.758 600.271 185.351 600.474 184.974Z" fill="#263238"/>
<path d="M649.33 187.444C644.812 188.129 640.216 188.129 635.698 187.444C640.214 186.733 644.814 186.733 649.33 187.444Z" fill="#263238"/>
<path d="M562.779 187.701C569.061 187.177 575.365 186.986 581.666 187.128C587.972 186.949 594.283 187.101 600.572 187.582C594.293 188.13 587.987 188.322 581.686 188.155C575.38 188.357 569.068 188.205 562.779 187.701Z" fill="#263238"/>
<path d="M766.008 560.514C770.447 568.753 777.171 575.535 785.372 580.046C793.572 584.556 802.901 586.603 812.236 585.939C823.266 585.167 833.703 580.658 841.823 573.154C849.944 565.651 855.264 555.603 856.905 544.669L868.363 413.51L822.47 402.17L803.722 504.901C803.722 504.901 793.923 547.949 766.008 560.514Z" fill="#FFBE9D"/>
<path d="M822.055 411.673L823.576 388.657C823.576 388.657 830.076 337.015 830.076 331.958C830.076 326.15 832.862 324.727 835.015 324.885C838.354 325.103 840.724 329.232 840.942 334.23C840.942 335.949 840.784 363.251 840.784 363.251C842.362 360.671 844.125 358.208 846.058 355.882C850.01 350.765 859.571 347.842 869.311 348.158C879.051 348.474 881.718 349.422 881.777 353.195C881.743 353.916 881.547 354.621 881.205 355.256C880.864 355.892 880.384 356.444 879.801 356.87C878.004 358.368 875.72 359.156 873.381 359.083C857.793 358.806 853.625 367.123 853.625 367.123L853.427 370.146C853.427 370.146 862.89 363.37 870.437 366.195C871.552 366.607 872.573 367.239 873.44 368.052C875.565 368.06 877.651 368.624 879.491 369.687C881.33 370.751 882.86 372.277 883.928 374.113C884.997 375.95 885.566 378.035 885.58 380.16C885.595 382.284 885.053 384.376 884.009 386.227C883.603 387.177 882.916 387.979 882.04 388.527C881.164 389.074 880.142 389.34 879.11 389.289C878.065 388.976 877.119 388.397 876.364 387.61C875.921 387.235 875.453 386.891 874.961 386.583L873.223 394.94C873.223 394.94 868.304 413.51 867.079 421.847" fill="#FFBE9D"/>
<path d="M826.54 409.875C829.385 410.665 832.329 408.571 833.869 406.042C835.41 403.514 836.062 400.53 837.406 397.883C841.475 389.981 851.235 386.227 854.969 378.127C855.482 377.001 855.759 375.46 854.771 374.71C853.783 373.959 852.559 374.571 851.551 375.124L825.868 389.349" fill="#FFBE9D"/>
<path d="M825.849 389.309C826.648 388.6 827.53 387.99 828.476 387.492C830.215 386.405 832.763 384.904 835.924 383.066L847.086 376.685L850.306 374.868C851.506 373.919 853.034 373.485 854.554 373.662C855.023 373.814 855.435 374.105 855.735 374.497C856.035 374.889 856.209 375.363 856.233 375.855C856.284 376.667 856.142 377.48 855.818 378.226C855.224 379.544 854.482 380.79 853.605 381.94C850.049 386.563 845.446 389.467 842.127 392.845C840.513 394.374 839.141 396.14 838.058 398.081C837.09 399.898 836.477 401.795 835.726 403.514C835.265 404.948 834.496 406.264 833.472 407.37C832.448 408.476 831.195 409.344 829.8 409.914C827.686 410.547 826.5 409.914 826.579 409.796C827.603 409.827 828.623 409.66 829.582 409.302C830.818 408.671 831.909 407.791 832.786 406.716C833.664 405.641 834.308 404.396 834.679 403.059C835.312 401.145 836.044 399.266 836.872 397.429C837.962 395.326 839.383 393.411 841.08 391.759C844.478 388.203 848.983 385.22 852.302 380.933C853.083 379.897 853.746 378.777 854.277 377.594C854.771 376.468 854.692 375.342 854.06 375.223C853.428 375.105 852.183 375.638 851.097 376.25L847.817 378.029L836.497 384.192C833.257 385.911 830.57 387.254 828.792 388.144C827.871 388.669 826.88 389.061 825.849 389.309Z" fill="#EB996E"/>
<path d="M853.072 370.363C853.246 368.494 853.863 366.693 854.87 365.108C856.04 363.483 857.702 362.278 859.611 361.671C862.002 360.885 864.503 360.485 867.019 360.485C869.603 360.511 872.184 360.286 874.724 359.814C876.853 359.38 878.829 358.391 880.453 356.949C880.993 356.451 881.413 355.836 881.68 355.151C881.947 354.467 882.054 353.73 881.994 352.998C881.966 352.46 881.788 351.94 881.481 351.497C881.382 351.497 881.481 352.069 881.579 353.018C881.57 353.68 881.417 354.332 881.131 354.929C880.844 355.526 880.431 356.054 879.92 356.475C878.341 357.718 876.483 358.559 874.507 358.925C872.019 359.334 869.5 359.519 866.98 359.478C864.369 359.449 861.772 359.857 859.295 360.683C857.224 361.404 855.451 362.794 854.257 364.634C853.484 365.872 853.035 367.286 852.953 368.743C852.841 369.284 852.882 369.845 853.072 370.363Z" fill="#EB996E"/>
<path d="M840.803 332.294C840.636 334.101 840.636 335.919 840.803 337.727C840.803 341.441 840.803 345.886 840.942 350.785C841.08 355.685 840.942 360.13 840.942 363.844C840.823 365.655 840.863 367.473 841.06 369.277C841.492 367.505 841.711 365.687 841.712 363.864C841.949 360.525 842.107 355.961 842.088 350.785C842.068 345.609 841.87 341.026 841.633 337.687C841.551 335.865 841.273 334.057 840.803 332.294Z" fill="#EB996E"/>
<path d="M859.236 376.428C859.788 376.296 860.319 376.09 860.816 375.816C861.46 375.487 862.167 375.299 862.889 375.265C863.611 375.231 864.333 375.351 865.005 375.618C865.417 375.843 865.765 376.17 866.014 376.568C866.263 376.966 866.406 377.421 866.427 377.89C866.49 379.069 866.404 380.25 866.17 381.407C865.843 382.861 866.076 384.384 866.822 385.674C867.294 386.337 867.916 386.879 868.637 387.257C869.357 387.634 870.157 387.837 870.971 387.847C871.771 387.842 872.561 387.674 873.294 387.355C874.028 387.036 874.689 386.572 875.238 385.99C876.268 384.957 876.958 383.633 877.214 382.197C877.524 379.874 877.49 377.517 877.115 375.204C876.91 373.639 876.436 372.121 875.712 370.719C875.159 369.731 874.645 369.356 874.606 369.395C874.566 369.435 874.922 369.929 875.337 370.897C875.879 372.317 876.218 373.807 876.344 375.322C876.604 377.549 876.571 379.801 876.246 382.019C875.994 383.276 875.343 384.417 874.388 385.272C873.433 386.127 872.228 386.649 870.951 386.761C870.308 386.757 869.676 386.603 869.103 386.312C868.53 386.02 868.033 385.599 867.652 385.082C867.055 383.998 866.866 382.736 867.118 381.525C867.339 380.28 867.392 379.011 867.277 377.752C867.219 377.151 867.007 376.574 866.661 376.079C866.315 375.584 865.846 375.187 865.301 374.927C864.532 374.634 863.706 374.528 862.888 374.618C862.071 374.707 861.286 374.989 860.599 375.441C859.671 375.994 859.117 376.29 859.236 376.428Z" fill="#EB996E"/>
<path d="M874.784 385.16C874.645 385.676 874.701 386.224 874.942 386.701C875.22 387.379 875.649 387.984 876.197 388.47C876.745 388.957 877.397 389.311 878.103 389.507C879.167 389.735 880.272 389.684 881.311 389.359C882.349 389.033 883.286 388.445 884.029 387.65C885.81 385.693 886.766 383.123 886.696 380.478C886.696 377.865 885.881 375.317 884.365 373.188C883.128 371.452 881.441 370.086 879.485 369.237C878.203 368.659 876.822 368.33 875.416 368.269C874.428 368.269 873.895 368.269 873.895 368.427C875.718 368.662 877.496 369.168 879.169 369.929C880.924 370.8 882.432 372.097 883.555 373.702C884.868 375.694 885.556 378.033 885.531 380.419C885.596 382.788 884.78 385.098 883.239 386.899C882.613 387.608 881.816 388.145 880.924 388.46C880.032 388.775 879.074 388.856 878.142 388.697C877.52 388.557 876.935 388.286 876.427 387.901C875.919 387.516 875.5 387.026 875.198 386.464C874.922 385.713 874.922 385.16 874.784 385.16Z" fill="#EB996E"/>
<path d="M856.016 403.415C855.167 403.147 854.256 403.147 853.408 403.415C851.184 403.901 849.183 405.11 847.718 406.852L848.627 407.129C848.507 405.906 848.309 404.692 848.034 403.494C847.248 399.247 845.299 395.301 842.404 392.095C844.339 395.801 845.875 399.701 846.987 403.731C847.264 404.956 847.461 406.141 847.6 407.247L847.758 408.472L848.528 407.504C849.838 405.89 851.588 404.689 853.566 404.047C855.048 403.593 856.016 403.553 856.016 403.415Z" fill="#EB996E"/>
<path d="M856.51 356.969C856.253 357.087 857.3 358.944 859.71 360.07C862.12 361.197 864.254 360.545 864.155 360.268C864.057 359.991 862.18 360.011 860.204 359.083C858.229 358.154 856.767 356.771 856.51 356.969Z" fill="#EB996E"/>
<path d="M814.153 426.569L871.82 430.698C871.82 430.698 862.95 532.737 861.231 548.561C859.513 564.386 849.378 588.251 814.153 588.251C778.928 588.251 772.369 576.259 756.703 551.564C775.175 538.762 804.512 500.535 804.512 500.535L814.153 426.569Z" fill="#0DA8EF"/>
<path d="M841.337 440.299C841.04 441.159 840.684 441.998 840.27 442.808L837.05 449.604L825.671 473.094L825.098 472.402L840.053 467.957L855.245 463.492L856.351 463.176L855.818 464.184L843.965 487.2L840.468 493.818C840.081 494.626 839.625 495.399 839.105 496.129C839.407 495.284 839.763 494.459 840.171 493.66C841.001 491.961 842.147 489.708 843.411 486.923L854.889 463.749L855.462 464.441L840.29 468.945L825.315 473.331L824.228 473.647L824.742 472.639L836.536 449.387C837.979 446.641 839.144 444.389 840.013 442.709C840.386 441.87 840.829 441.064 841.337 440.299Z" fill="#E0E0E0"/>
<path d="M835.885 538.446C835 538.636 834.101 538.755 833.198 538.802L825.691 539.454L799.731 541.429L800.047 540.58L811.427 551.248L822.944 562.114L823.774 562.904H822.628L796.807 564.326L789.34 564.642C788.446 564.72 787.547 564.72 786.653 564.642C787.532 564.468 788.424 564.362 789.32 564.326L796.768 563.714L822.569 561.936L822.273 562.785L810.716 551.939L799.376 541.232L798.546 540.461H799.672L825.651 538.901L833.178 538.525C834.077 538.43 834.982 538.404 835.885 538.446Z" fill="#E0E0E0"/>
<path d="M832.289 222.688C831.775 221.143 831.476 219.534 831.4 217.907C830.96 214.019 830.802 210.103 830.926 206.192C830.926 203.9 831.143 201.727 831.341 199.752C831.439 197.95 831.888 196.185 832.664 194.556C833.22 193.44 834.121 192.533 835.233 191.968C836.043 191.593 836.536 191.612 836.536 191.672C835.117 192.322 833.976 193.457 833.316 194.872C832.685 196.452 832.337 198.13 832.289 199.831C832.131 201.806 832.012 203.96 831.953 206.232C831.815 210.756 831.953 214.865 832.131 217.848C832.31 219.455 832.363 221.073 832.289 222.688Z" fill="white"/>
<path d="M833.139 237.683C832.862 237.683 832.605 236.28 832.566 234.522C832.526 232.764 832.744 231.341 833.02 231.341C833.297 231.341 833.554 232.744 833.593 234.502C833.633 236.26 833.435 237.683 833.139 237.683Z" fill="white"/>
<path d="M774.8 418.232L709.23 580.388H590.991V587.717H943.179L1015.23 418.232H774.8Z" fill="#263238"/>
<path d="M875.04 513.968C872.67 522.128 865.755 527.284 859.591 525.506C853.427 523.728 850.365 515.628 852.736 507.469C855.107 499.31 862.041 494.153 868.205 495.931C874.369 497.709 877.431 505.809 875.04 513.968Z" fill="#FAFAFA"/>
</svg>
