<svg width="385" height="219" viewBox="0 0 385 219" fill="none" xmlns="http://www.w3.org/2000/svg">
<path d="M12.03 30.2429H372.939C379.58 30.2429 384.969 23.5222 384.969 15.2429C384.969 6.96238 379.579 0.24292 372.939 0.24292H12.03C5.389 0.24292 0 6.96363 0 15.2429C0 23.5222 5.39 30.2429 12.03 30.2429Z" fill="black" fill-opacity="0.5"/>
<path d="M372.939 94.4551H12.03C5.389 94.4551 0 101.176 0 109.455C0 117.734 5.39 124.455 12.03 124.455H372.939C379.58 124.455 384.969 117.734 384.969 109.455C384.969 101.176 379.58 94.4551 372.939 94.4551Z" fill="black" fill-opacity="0.5"/>
<path d="M372.939 188.667H132.333C125.692 188.667 120.303 195.388 120.303 203.667C120.303 211.948 125.693 218.667 132.333 218.667H372.939C379.58 218.667 384.969 211.946 384.969 203.667C384.97 195.386 379.58 188.667 372.939 188.667Z" fill="black" fill-opacity="0.5"/>
</svg>
